<svg xmlns="http://www.w3.org/2000/svg" xmlns:xlink="http://www.w3.org/1999/xlink" width="442" height="300" viewBox="-0.75 -0.5156 1.4995 1.0156"><style>svg {
  color-scheme: light dark;
}
{
  .canvas g, .title g, .axisbar g, .ticktext g, .tickglyph g, .ticklines g, .legendContent g text {
    fill: rgb(5%, 5%, 5%);
  }
  .ticklines g, .tickglyph g, .legendBorder g {
    stroke: rgb(5%, 5%, 5%);
  }
  .legendBorder g {
    fill: rgb(94%, 94%, 94%);
  }
}
@media (prefers-color-scheme:dark) {
  .canvas g, .title g, .axisbar g, .ticktext g, .tickglyph g, .ticklines g, .legendContent g text {
    fill: rgb(94%, 94%, 94%);
  }
  .ticklines g, .tickglyph g, .legendBorder g {
    stroke: rgb(94%, 94%, 94%);
  }
  .legendBorder g {
    fill: rgb(5%, 5%, 5%);
  }
}
svg { font-family: system-ui,-apple-system,"Segoe UI",Roboto,"Helvetica Neue",Arial,"Noto Sans","Liberation Sans",sans-serif,"Apple Color Emoji","Segoe UI Emoji","Segoe UI Symbol","Noto Color Emoji";
}

ticktext { font-family: SFMono-Regular,Menlo,Monaco,Consolas,"Liberation Mono","Courier New",monospace;
}

</style><g class="chart"><g class="chart"><g class="hhistogram"><g stroke-width="0.0066" stroke="rgb(2%, 29%, 48%)" stroke-opacity="1.0" fill="rgb(2%, 73%, 80%)" fill-opacity="0.1"><rect width="0" height="0.0061" x="0.5400" y="0.2542"/><rect width="0" height="0.0077" x="0.5400" y="0.2465"/><rect width="0" height="0.0077" x="0.5400" y="0.2389"/><rect width="0" height="0.0077" x="0.5400" y="0.2312"/><rect width="0" height="0.0077" x="0.5400" y="0.2236"/><rect width="0" height="0.0077" x="0.5400" y="0.2159"/><rect width="0" height="0.0077" x="0.5400" y="0.2082"/><rect width="0" height="0.0077" x="0.5400" y="0.2006"/><rect width="0" height="0.0077" x="0.5400" y="0.1929"/><rect width="0.0369" height="0.0077" x="0.5400" y="0.1852"/><rect width="0.0142" height="0.0077" x="0.5400" y="0.1776"/><rect width="0.2062" height="0.0077" x="0.5400" y="0.1699"/><rect width="0.0016" height="0.0077" x="0.5400" y="0.1622"/><rect width="0" height="0.0077" x="0.5400" y="0.1546"/><rect width="0.0003" height="0.0077" x="0.5400" y="0.1469"/><rect width="0.0003" height="0.0077" x="0.5400" y="0.1393"/><rect width="0.0003" height="0.0077" x="0.5400" y="0.1316"/><rect width="0.0003" height="0.0077" x="0.5400" y="0.1239"/><rect width="0.0003" height="0.0077" x="0.5400" y="0.1163"/><rect width="0.0003" height="0.0077" x="0.5400" y="0.1086"/><rect width="0.0005" height="0.0077" x="0.5400" y="0.1009"/><rect width="0.0005" height="0.0077" x="0.5400" y="0.0933"/><rect width="0.0005" height="0.0077" x="0.5400" y="0.0856"/><rect width="0" height="0.0077" x="0.5400" y="0.0779"/><rect width="0.0003" height="0.0077" x="0.5400" y="0.0703"/><rect width="0" height="0.0077" x="0.5400" y="0.0626"/><rect width="0.0003" height="0.0077" x="0.5400" y="0.0550"/><rect width="0" height="0.0077" x="0.5400" y="0.0473"/><rect width="0.0003" height="0.0077" x="0.5400" y="0.0396"/><rect width="0" height="0.0077" x="0.5400" y="0.0320"/><rect width="0" height="0.0077" x="0.5400" y="0.0243"/><rect width="0" height="0.0077" x="0.5400" y="0.0166"/><rect width="0" height="0.0077" x="0.5400" y="0.0090"/><rect width="0" height="0.0077" x="0.5400" y="0.0013"/><rect width="0" height="0.0077" x="0.5400" y="-0.0064"/><rect width="0" height="0.0077" x="0.5400" y="-0.0140"/><rect width="0" height="0.0077" x="0.5400" y="-0.0217"/><rect width="0" height="0.0077" x="0.5400" y="-0.0293"/><rect width="0" height="0.0077" x="0.5400" y="-0.0370"/><rect width="0" height="0.0077" x="0.5400" y="-0.0447"/><rect width="0" height="0.0077" x="0.5400" y="-0.0523"/><rect width="0" height="0.0077" x="0.5400" y="-0.0600"/><rect width="0" height="0.0077" x="0.5400" y="-0.0677"/><rect width="0" height="0.0077" x="0.5400" y="-0.0753"/><rect width="0" height="0.0077" x="0.5400" y="-0.0830"/><rect width="0" height="0.0077" x="0.5400" y="-0.0907"/><rect width="0" height="0.0077" x="0.5400" y="-0.0983"/><rect width="0" height="0.0077" x="0.5400" y="-0.1060"/><rect width="0" height="0.0077" x="0.5400" y="-0.1136"/><rect width="0" height="0.0077" x="0.5400" y="-0.1213"/><rect width="0.0003" height="0.0077" x="0.5400" y="-0.1290"/><rect width="0" height="0.0077" x="0.5400" y="-0.1366"/><rect width="0" height="0.0077" x="0.5400" y="-0.1443"/><rect width="0" height="0.0077" x="0.5400" y="-0.1520"/><rect width="0" height="0.0077" x="0.5400" y="-0.1596"/><rect width="0" height="0.0077" x="0.5400" y="-0.1673"/><rect width="0" height="0.0077" x="0.5400" y="-0.1749"/><rect width="0" height="0.0077" x="0.5400" y="-0.1826"/><rect width="0" height="0.0077" x="0.5400" y="-0.1903"/><rect width="0" height="0.0077" x="0.5400" y="-0.1979"/><rect width="0" height="0.0077" x="0.5400" y="-0.2056"/><rect width="0" height="0.0077" x="0.5400" y="-0.2133"/><rect width="0" height="0.0077" x="0.5400" y="-0.2209"/><rect width="0" height="0.0077" x="0.5400" y="-0.2286"/><rect width="0" height="0.0077" x="0.5400" y="-0.2363"/><rect width="0" height="0.0077" x="0.5400" y="-0.2439"/><rect width="0" height="0.0077" x="0.5400" y="-0.2516"/><rect width="0" height="0.0077" x="0.5400" y="-0.2592"/><rect width="0" height="0.0077" x="0.5400" y="-0.2669"/><rect width="0" height="0.0077" x="0.5400" y="-0.2746"/><rect width="0" height="0.0077" x="0.5400" y="-0.2822"/><rect width="0" height="0.0077" x="0.5400" y="-0.2899"/><rect width="0" height="0.0077" x="0.5400" y="-0.2976"/><rect width="0.0003" height="0.0077" x="0.5400" y="-0.3052"/><rect width="0" height="0.0077" x="0.5400" y="-0.3129"/><rect width="0" height="0.0077" x="0.5400" y="-0.3206"/><rect width="0" height="0.0077" x="0.5400" y="-0.3282"/><rect width="0" height="0.0077" x="0.5400" y="-0.3359"/><rect width="0" height="0.0077" x="0.5400" y="-0.3435"/><rect width="0" height="0.0077" x="0.5400" y="-0.3512"/><rect width="0" height="0.0077" x="0.5400" y="-0.3589"/><rect width="0" height="0.0061" x="0.5400" y="-0.3650"/></g></g></g><g class="hud"></g><g class="chart"><g class="dot"><g stroke-width="0.0020" stroke="rgb(2%, 29%, 48%)" stroke-opacity="0.3" fill="rgb(2%, 73%, 80%)" fill-opacity="0.3"><circle cx="-0.5773" cy="0.1170" r="0.0033"/><circle cx="-0.5763" cy="0.1796" r="0.0033"/><circle cx="-0.5753" cy="0.1815" r="0.0033"/><circle cx="-0.5742" cy="0.1815" r="0.0033"/><circle cx="-0.5732" cy="0.1818" r="0.0033"/><circle cx="-0.5721" cy="0.1822" r="0.0033"/><circle cx="-0.5711" cy="0.1822" r="0.0033"/><circle cx="-0.5700" cy="0.1818" r="0.0033"/><circle cx="-0.5690" cy="0.1818" r="0.0033"/><circle cx="-0.5679" cy="0.1818" r="0.0033"/><circle cx="-0.5669" cy="0.1818" r="0.0033"/><circle cx="-0.5659" cy="0.1818" r="0.0033"/><circle cx="-0.5648" cy="0.1822" r="0.0033"/><circle cx="-0.5638" cy="0.1822" r="0.0033"/><circle cx="-0.5627" cy="0.1822" r="0.0033"/><circle cx="-0.5617" cy="0.1818" r="0.0033"/><circle cx="-0.5606" cy="0.1815" r="0.0033"/><circle cx="-0.5596" cy="0.1818" r="0.0033"/><circle cx="-0.5586" cy="0.1815" r="0.0033"/><circle cx="-0.5575" cy="0.1812" r="0.0033"/><circle cx="-0.5565" cy="0.1818" r="0.0033"/><circle cx="-0.5554" cy="0.1822" r="0.0033"/><circle cx="-0.5544" cy="0.1805" r="0.0033"/><circle cx="-0.5533" cy="0.1818" r="0.0033"/><circle cx="-0.5523" cy="0.1815" r="0.0033"/><circle cx="-0.5512" cy="0.1701" r="0.0033"/><circle cx="-0.5502" cy="0.1818" r="0.0033"/><circle cx="-0.5492" cy="0.1822" r="0.0033"/><circle cx="-0.5481" cy="0.1818" r="0.0033"/><circle cx="-0.5471" cy="0.1818" r="0.0033"/><circle cx="-0.5460" cy="0.1818" r="0.0033"/><circle cx="-0.5450" cy="0.1818" r="0.0033"/><circle cx="-0.5439" cy="0.1818" r="0.0033"/><circle cx="-0.5429" cy="0.1818" r="0.0033"/><circle cx="-0.5418" cy="0.1818" r="0.0033"/><circle cx="-0.5408" cy="0.1809" r="0.0033"/><circle cx="-0.5398" cy="0.1812" r="0.0033"/><circle cx="-0.5387" cy="0.1809" r="0.0033"/><circle cx="-0.5377" cy="0.1815" r="0.0033"/><circle cx="-0.5366" cy="0.1818" r="0.0033"/><circle cx="-0.5356" cy="0.1818" r="0.0033"/><circle cx="-0.5345" cy="0.1818" r="0.0033"/><circle cx="-0.5335" cy="0.1809" r="0.0033"/><circle cx="-0.5324" cy="0.1812" r="0.0033"/><circle cx="-0.5314" cy="0.1818" r="0.0033"/><circle cx="-0.5304" cy="0.1818" r="0.0033"/><circle cx="-0.5293" cy="0.1815" r="0.0033"/><circle cx="-0.5283" cy="0.1822" r="0.0033"/><circle cx="-0.5272" cy="0.1822" r="0.0033"/><circle cx="-0.5262" cy="0.1818" r="0.0033"/><circle cx="-0.5251" cy="0.1818" r="0.0033"/><circle cx="-0.5241" cy="0.1822" r="0.0033"/><circle cx="-0.5230" cy="0.1815" r="0.0033"/><circle cx="-0.5220" cy="0.1825" r="0.0033"/><circle cx="-0.5210" cy="0.1818" r="0.0033"/><circle cx="-0.5199" cy="0.1818" r="0.0033"/><circle cx="-0.5189" cy="0.1818" r="0.0033"/><circle cx="-0.5178" cy="0.1825" r="0.0033"/><circle cx="-0.5168" cy="0.1818" r="0.0033"/><circle cx="-0.5157" cy="0.1822" r="0.0033"/><circle cx="-0.5147" cy="0.1805" r="0.0033"/><circle cx="-0.5136" cy="0.1809" r="0.0033"/><circle cx="-0.5126" cy="0.1812" r="0.0033"/><circle cx="-0.5116" cy="0.1805" r="0.0033"/><circle cx="-0.5105" cy="0.1818" r="0.0033"/><circle cx="-0.5095" cy="0.1822" r="0.0033"/><circle cx="-0.5084" cy="0.1822" r="0.0033"/><circle cx="-0.5074" cy="0.1818" r="0.0033"/><circle cx="-0.5063" cy="0.1818" r="0.0033"/><circle cx="-0.5053" cy="0.1822" r="0.0033"/><circle cx="-0.5043" cy="0.1818" r="0.0033"/><circle cx="-0.5032" cy="0.1822" r="0.0033"/><circle cx="-0.5022" cy="0.1818" r="0.0033"/><circle cx="-0.5011" cy="0.1818" r="0.0033"/><circle cx="-0.5001" cy="0.1812" r="0.0033"/><circle cx="-0.4990" cy="0.1818" r="0.0033"/><circle cx="-0.4980" cy="0.1822" r="0.0033"/><circle cx="-0.4969" cy="0.1825" r="0.0033"/><circle cx="-0.4959" cy="0.1822" r="0.0033"/><circle cx="-0.4949" cy="0.1805" r="0.0033"/><circle cx="-0.4938" cy="0.1818" r="0.0033"/><circle cx="-0.4928" cy="0.1786" r="0.0033"/><circle cx="-0.4917" cy="0.1812" r="0.0033"/><circle cx="-0.4907" cy="0.1815" r="0.0033"/><circle cx="-0.4896" cy="0.1822" r="0.0033"/><circle cx="-0.4886" cy="0.1812" r="0.0033"/><circle cx="-0.4875" cy="0.1822" r="0.0033"/><circle cx="-0.4865" cy="0.1822" r="0.0033"/><circle cx="-0.4855" cy="0.1815" r="0.0033"/><circle cx="-0.4844" cy="0.1818" r="0.0033"/><circle cx="-0.4834" cy="0.1822" r="0.0033"/><circle cx="-0.4823" cy="0.1818" r="0.0033"/><circle cx="-0.4813" cy="0.1822" r="0.0033"/><circle cx="-0.4802" cy="0.1812" r="0.0033"/><circle cx="-0.4792" cy="0.1812" r="0.0033"/><circle cx="-0.4781" cy="0.1812" r="0.0033"/><circle cx="-0.4771" cy="0.1815" r="0.0033"/><circle cx="-0.4761" cy="0.1822" r="0.0033"/><circle cx="-0.4750" cy="0.1822" r="0.0033"/><circle cx="-0.4740" cy="0.1822" r="0.0033"/><circle cx="-0.4729" cy="0.1812" r="0.0033"/><circle cx="-0.4719" cy="0.1815" r="0.0033"/><circle cx="-0.4708" cy="0.1815" r="0.0033"/><circle cx="-0.4698" cy="0.1815" r="0.0033"/><circle cx="-0.4687" cy="0.1809" r="0.0033"/><circle cx="-0.4677" cy="0.1812" r="0.0033"/><circle cx="-0.4667" cy="0.1815" r="0.0033"/><circle cx="-0.4656" cy="0.1818" r="0.0033"/><circle cx="-0.4646" cy="0.1818" r="0.0033"/><circle cx="-0.4635" cy="0.1822" r="0.0033"/><circle cx="-0.4625" cy="0.1812" r="0.0033"/><circle cx="-0.4614" cy="0.1812" r="0.0033"/><circle cx="-0.4604" cy="0.1812" r="0.0033"/><circle cx="-0.4593" cy="0.1815" r="0.0033"/><circle cx="-0.4583" cy="0.1822" r="0.0033"/><circle cx="-0.4573" cy="0.1822" r="0.0033"/><circle cx="-0.4562" cy="0.1825" r="0.0033"/><circle cx="-0.4552" cy="0.1822" r="0.0033"/><circle cx="-0.4541" cy="0.1812" r="0.0033"/><circle cx="-0.4531" cy="0.1809" r="0.0033"/><circle cx="-0.4520" cy="0.1822" r="0.0033"/><circle cx="-0.4510" cy="0.1822" r="0.0033"/><circle cx="-0.4500" cy="0.1825" r="0.0033"/><circle cx="-0.4489" cy="0.1822" r="0.0033"/><circle cx="-0.4479" cy="0.1822" r="0.0033"/><circle cx="-0.4468" cy="0.1818" r="0.0033"/><circle cx="-0.4458" cy="0.1822" r="0.0033"/><circle cx="-0.4447" cy="0.1822" r="0.0033"/><circle cx="-0.4437" cy="0.1822" r="0.0033"/><circle cx="-0.4426" cy="0.1822" r="0.0033"/><circle cx="-0.4416" cy="0.1822" r="0.0033"/><circle cx="-0.4406" cy="0.1822" r="0.0033"/><circle cx="-0.4395" cy="0.1818" r="0.0033"/><circle cx="-0.4385" cy="0.1818" r="0.0033"/><circle cx="-0.4374" cy="0.1822" r="0.0033"/><circle cx="-0.4364" cy="0.1822" r="0.0033"/><circle cx="-0.4353" cy="0.1818" r="0.0033"/><circle cx="-0.4343" cy="0.1822" r="0.0033"/><circle cx="-0.4332" cy="0.1822" r="0.0033"/><circle cx="-0.4322" cy="0.1822" r="0.0033"/><circle cx="-0.4312" cy="0.1818" r="0.0033"/><circle cx="-0.4301" cy="0.1822" r="0.0033"/><circle cx="-0.4291" cy="0.1818" r="0.0033"/><circle cx="-0.4280" cy="0.1818" r="0.0033"/><circle cx="-0.4270" cy="0.1822" r="0.0033"/><circle cx="-0.4259" cy="0.1822" r="0.0033"/><circle cx="-0.4249" cy="0.1818" r="0.0033"/><circle cx="-0.4238" cy="0.1818" r="0.0033"/><circle cx="-0.4228" cy="0.1822" r="0.0033"/><circle cx="-0.4218" cy="0.1818" r="0.0033"/><circle cx="-0.4207" cy="0.1818" r="0.0033"/><circle cx="-0.4197" cy="0.1822" r="0.0033"/><circle cx="-0.4186" cy="0.1822" r="0.0033"/><circle cx="-0.4176" cy="0.1822" r="0.0033"/><circle cx="-0.4165" cy="0.1822" r="0.0033"/><circle cx="-0.4155" cy="0.1818" r="0.0033"/><circle cx="-0.4144" cy="0.1818" r="0.0033"/><circle cx="-0.4134" cy="0.1818" r="0.0033"/><circle cx="-0.4124" cy="0.1825" r="0.0033"/><circle cx="-0.4113" cy="0.1818" r="0.0033"/><circle cx="-0.4103" cy="0.1822" r="0.0033"/><circle cx="-0.4092" cy="0.1818" r="0.0033"/><circle cx="-0.4082" cy="0.1822" r="0.0033"/><circle cx="-0.4071" cy="0.1822" r="0.0033"/><circle cx="-0.4061" cy="0.1818" r="0.0033"/><circle cx="-0.4050" cy="0.1818" r="0.0033"/><circle cx="-0.4040" cy="0.1825" r="0.0033"/><circle cx="-0.4030" cy="0.1822" r="0.0033"/><circle cx="-0.4019" cy="0.1822" r="0.0033"/><circle cx="-0.4009" cy="0.1822" r="0.0033"/><circle cx="-0.3998" cy="0.1822" r="0.0033"/><circle cx="-0.3988" cy="0.1825" r="0.0033"/><circle cx="-0.3977" cy="0.1822" r="0.0033"/><circle cx="-0.3967" cy="0.1825" r="0.0033"/><circle cx="-0.3957" cy="0.1822" r="0.0033"/><circle cx="-0.3946" cy="0.1822" r="0.0033"/><circle cx="-0.3936" cy="0.1818" r="0.0033"/><circle cx="-0.3925" cy="0.1822" r="0.0033"/><circle cx="-0.3915" cy="0.1818" r="0.0033"/><circle cx="-0.3904" cy="0.1825" r="0.0033"/><circle cx="-0.3894" cy="0.1822" r="0.0033"/><circle cx="-0.3883" cy="0.1825" r="0.0033"/><circle cx="-0.3873" cy="0.1818" r="0.0033"/><circle cx="-0.3863" cy="0.1822" r="0.0033"/><circle cx="-0.3852" cy="0.1825" r="0.0033"/><circle cx="-0.3842" cy="0.1825" r="0.0033"/><circle cx="-0.3831" cy="0.1822" r="0.0033"/><circle cx="-0.3821" cy="0.1825" r="0.0033"/><circle cx="-0.3810" cy="0.1818" r="0.0033"/><circle cx="-0.3800" cy="0.1822" r="0.0033"/><circle cx="-0.3789" cy="0.1822" r="0.0033"/><circle cx="-0.3779" cy="0.1825" r="0.0033"/><circle cx="-0.3769" cy="0.1822" r="0.0033"/><circle cx="-0.3758" cy="0.1822" r="0.0033"/><circle cx="-0.3748" cy="0.1822" r="0.0033"/><circle cx="-0.3737" cy="0.1818" r="0.0033"/><circle cx="-0.3727" cy="0.1818" r="0.0033"/><circle cx="-0.3716" cy="0.1818" r="0.0033"/><circle cx="-0.3706" cy="0.1822" r="0.0033"/><circle cx="-0.3695" cy="0.1822" r="0.0033"/><circle cx="-0.3685" cy="0.1828" r="0.0033"/><circle cx="-0.3675" cy="0.1822" r="0.0033"/><circle cx="-0.3664" cy="0.1822" r="0.0033"/><circle cx="-0.3654" cy="0.1818" r="0.0033"/><circle cx="-0.3643" cy="0.1818" r="0.0033"/><circle cx="-0.3633" cy="0.1818" r="0.0033"/><circle cx="-0.3622" cy="0.1825" r="0.0033"/><circle cx="-0.3612" cy="0.1818" r="0.0033"/><circle cx="-0.3601" cy="0.1822" r="0.0033"/><circle cx="-0.3591" cy="0.1818" r="0.0033"/><circle cx="-0.3581" cy="0.1818" r="0.0033"/><circle cx="-0.3570" cy="0.1822" r="0.0033"/><circle cx="-0.3560" cy="0.1825" r="0.0033"/><circle cx="-0.3549" cy="0.1818" r="0.0033"/><circle cx="-0.3539" cy="0.1818" r="0.0033"/><circle cx="-0.3528" cy="0.1822" r="0.0033"/><circle cx="-0.3518" cy="0.1822" r="0.0033"/><circle cx="-0.3507" cy="0.1822" r="0.0033"/><circle cx="-0.3497" cy="0.1815" r="0.0033"/><circle cx="-0.3487" cy="0.1822" r="0.0033"/><circle cx="-0.3476" cy="0.1822" r="0.0033"/><circle cx="-0.3466" cy="0.1825" r="0.0033"/><circle cx="-0.3455" cy="0.1818" r="0.0033"/><circle cx="-0.3445" cy="0.1818" r="0.0033"/><circle cx="-0.3434" cy="0.1818" r="0.0033"/><circle cx="-0.3424" cy="0.1822" r="0.0033"/><circle cx="-0.3414" cy="0.1825" r="0.0033"/><circle cx="-0.3403" cy="0.1825" r="0.0033"/><circle cx="-0.3393" cy="0.1825" r="0.0033"/><circle cx="-0.3382" cy="0.1822" r="0.0033"/><circle cx="-0.3372" cy="0.1822" r="0.0033"/><circle cx="-0.3361" cy="0.1818" r="0.0033"/><circle cx="-0.3351" cy="0.1812" r="0.0033"/><circle cx="-0.3340" cy="0.1809" r="0.0033"/><circle cx="-0.3330" cy="0.1822" r="0.0033"/><circle cx="-0.3320" cy="0.1822" r="0.0033"/><circle cx="-0.3309" cy="0.1822" r="0.0033"/><circle cx="-0.3299" cy="0.1818" r="0.0033"/><circle cx="-0.3288" cy="0.1818" r="0.0033"/><circle cx="-0.3278" cy="0.1822" r="0.0033"/><circle cx="-0.3267" cy="0.1812" r="0.0033"/><circle cx="-0.3257" cy="0.1812" r="0.0033"/><circle cx="-0.3246" cy="0.1815" r="0.0033"/><circle cx="-0.3236" cy="0.1812" r="0.0033"/><circle cx="-0.3226" cy="0.1822" r="0.0033"/><circle cx="-0.3215" cy="0.1818" r="0.0033"/><circle cx="-0.3205" cy="0.1822" r="0.0033"/><circle cx="-0.3194" cy="0.1818" r="0.0033"/><circle cx="-0.3184" cy="0.1822" r="0.0033"/><circle cx="-0.3173" cy="0.1825" r="0.0033"/><circle cx="-0.3163" cy="0.1818" r="0.0033"/><circle cx="-0.3152" cy="0.1825" r="0.0033"/><circle cx="-0.3142" cy="0.1818" r="0.0033"/><circle cx="-0.3132" cy="0.1818" r="0.0033"/><circle cx="-0.3121" cy="0.1818" r="0.0033"/><circle cx="-0.3111" cy="0.1822" r="0.0033"/><circle cx="-0.3100" cy="0.1822" r="0.0033"/><circle cx="-0.3090" cy="0.1818" r="0.0033"/><circle cx="-0.3079" cy="0.1818" r="0.0033"/><circle cx="-0.3069" cy="0.1815" r="0.0033"/><circle cx="-0.3058" cy="0.1822" r="0.0033"/><circle cx="-0.3048" cy="0.1818" r="0.0033"/><circle cx="-0.3038" cy="0.1822" r="0.0033"/><circle cx="-0.3027" cy="0.1822" r="0.0033"/><circle cx="-0.3017" cy="0.1822" r="0.0033"/><circle cx="-0.3006" cy="0.1815" r="0.0033"/><circle cx="-0.2996" cy="0.1822" r="0.0033"/><circle cx="-0.2985" cy="0.1818" r="0.0033"/><circle cx="-0.2975" cy="0.1822" r="0.0033"/><circle cx="-0.2964" cy="0.1822" r="0.0033"/><circle cx="-0.2954" cy="0.1822" r="0.0033"/><circle cx="-0.2944" cy="0.1825" r="0.0033"/><circle cx="-0.2933" cy="0.1822" r="0.0033"/><circle cx="-0.2923" cy="0.1809" r="0.0033"/><circle cx="-0.2912" cy="0.1805" r="0.0033"/><circle cx="-0.2902" cy="0.1818" r="0.0033"/><circle cx="-0.2891" cy="0.1822" r="0.0033"/><circle cx="-0.2881" cy="0.1825" r="0.0033"/><circle cx="-0.2870" cy="0.1822" r="0.0033"/><circle cx="-0.2860" cy="0.1822" r="0.0033"/><circle cx="-0.2850" cy="0.1809" r="0.0033"/><circle cx="-0.2839" cy="0.1818" r="0.0033"/><circle cx="-0.2829" cy="0.1815" r="0.0033"/><circle cx="-0.2818" cy="0.1822" r="0.0033"/><circle cx="-0.2808" cy="0.1822" r="0.0033"/><circle cx="-0.2797" cy="0.1825" r="0.0033"/><circle cx="-0.2787" cy="0.1818" r="0.0033"/><circle cx="-0.2777" cy="0.1822" r="0.0033"/><circle cx="-0.2766" cy="0.1822" r="0.0033"/><circle cx="-0.2756" cy="0.1828" r="0.0033"/><circle cx="-0.2745" cy="0.1822" r="0.0033"/><circle cx="-0.2735" cy="0.1822" r="0.0033"/><circle cx="-0.2724" cy="0.1812" r="0.0033"/><circle cx="-0.2714" cy="0.1818" r="0.0033"/><circle cx="-0.2703" cy="0.1818" r="0.0033"/><circle cx="-0.2693" cy="0.1825" r="0.0033"/><circle cx="-0.2683" cy="0.1822" r="0.0033"/><circle cx="-0.2672" cy="0.1815" r="0.0033"/><circle cx="-0.2662" cy="0.1818" r="0.0033"/><circle cx="-0.2651" cy="0.1815" r="0.0033"/><circle cx="-0.2641" cy="0.1818" r="0.0033"/><circle cx="-0.2630" cy="0.1815" r="0.0033"/><circle cx="-0.2620" cy="0.1822" r="0.0033"/><circle cx="-0.2609" cy="0.1818" r="0.0033"/><circle cx="-0.2599" cy="0.1822" r="0.0033"/><circle cx="-0.2589" cy="0.1822" r="0.0033"/><circle cx="-0.2578" cy="0.1822" r="0.0033"/><circle cx="-0.2568" cy="0.1822" r="0.0033"/><circle cx="-0.2557" cy="0.1822" r="0.0033"/><circle cx="-0.2547" cy="0.1815" r="0.0033"/><circle cx="-0.2536" cy="0.1818" r="0.0033"/><circle cx="-0.2526" cy="0.1822" r="0.0033"/><circle cx="-0.2515" cy="0.1809" r="0.0033"/><circle cx="-0.2505" cy="0.1825" r="0.0033"/><circle cx="-0.2495" cy="0.1822" r="0.0033"/><circle cx="-0.2484" cy="0.1822" r="0.0033"/><circle cx="-0.2474" cy="-0.3090" r="0.0033"/><circle cx="-0.2463" cy="0.1747" r="0.0033"/><circle cx="-0.2453" cy="0.1815" r="0.0033"/><circle cx="-0.2442" cy="0.1815" r="0.0033"/><circle cx="-0.2432" cy="0.1812" r="0.0033"/><circle cx="-0.2421" cy="0.1815" r="0.0033"/><circle cx="-0.2411" cy="0.1822" r="0.0033"/><circle cx="-0.2401" cy="0.1818" r="0.0033"/><circle cx="-0.2390" cy="0.1822" r="0.0033"/><circle cx="-0.2380" cy="0.1815" r="0.0033"/><circle cx="-0.2369" cy="0.1822" r="0.0033"/><circle cx="-0.2359" cy="0.1822" r="0.0033"/><circle cx="-0.2348" cy="0.1822" r="0.0033"/><circle cx="-0.2338" cy="0.1822" r="0.0033"/><circle cx="-0.2327" cy="0.1818" r="0.0033"/><circle cx="-0.2317" cy="0.1818" r="0.0033"/><circle cx="-0.2307" cy="0.1822" r="0.0033"/><circle cx="-0.2296" cy="0.1822" r="0.0033"/><circle cx="-0.2286" cy="0.1822" r="0.0033"/><circle cx="-0.2275" cy="0.1815" r="0.0033"/><circle cx="-0.2265" cy="0.1818" r="0.0033"/><circle cx="-0.2254" cy="0.1812" r="0.0033"/><circle cx="-0.2244" cy="-0.1289" r="0.0033"/><circle cx="-0.2234" cy="0.1744" r="0.0033"/><circle cx="-0.2223" cy="0.1809" r="0.0033"/><circle cx="-0.2213" cy="0.1815" r="0.0033"/><circle cx="-0.2202" cy="0.1812" r="0.0033"/><circle cx="-0.2192" cy="0.1822" r="0.0033"/><circle cx="-0.2181" cy="0.1822" r="0.0033"/><circle cx="-0.2171" cy="0.1548" r="0.0033"/><circle cx="-0.2160" cy="0.1812" r="0.0033"/><circle cx="-0.2150" cy="0.1812" r="0.0033"/><circle cx="-0.2140" cy="0.1812" r="0.0033"/><circle cx="-0.2129" cy="0.1812" r="0.0033"/><circle cx="-0.2119" cy="0.1822" r="0.0033"/><circle cx="-0.2108" cy="0.1809" r="0.0033"/><circle cx="-0.2098" cy="0.1822" r="0.0033"/><circle cx="-0.2087" cy="0.1818" r="0.0033"/><circle cx="-0.2077" cy="0.1792" r="0.0033"/><circle cx="-0.2066" cy="0.1799" r="0.0033"/><circle cx="-0.2056" cy="0.1822" r="0.0033"/><circle cx="-0.2046" cy="0.1818" r="0.0033"/><circle cx="-0.2035" cy="0.1818" r="0.0033"/><circle cx="-0.2025" cy="0.1796" r="0.0033"/><circle cx="-0.2014" cy="0.1818" r="0.0033"/><circle cx="-0.2004" cy="0.1822" r="0.0033"/><circle cx="-0.1993" cy="0.1822" r="0.0033"/><circle cx="-0.1983" cy="0.1704" r="0.0033"/><circle cx="-0.1972" cy="0.1802" r="0.0033"/><circle cx="-0.1962" cy="0.1815" r="0.0033"/><circle cx="-0.1952" cy="0.1818" r="0.0033"/><circle cx="-0.1941" cy="0.1822" r="0.0033"/><circle cx="-0.1931" cy="0.1818" r="0.0033"/><circle cx="-0.1920" cy="0.1822" r="0.0033"/><circle cx="-0.1910" cy="0.1822" r="0.0033"/><circle cx="-0.1899" cy="0.1825" r="0.0033"/><circle cx="-0.1889" cy="0.1822" r="0.0033"/><circle cx="-0.1878" cy="0.1822" r="0.0033"/><circle cx="-0.1868" cy="0.1818" r="0.0033"/><circle cx="-0.1858" cy="0.1056" r="0.0033"/><circle cx="-0.1847" cy="0.1779" r="0.0033"/><circle cx="-0.1837" cy="0.1805" r="0.0033"/><circle cx="-0.1826" cy="0.1802" r="0.0033"/><circle cx="-0.1816" cy="0.1805" r="0.0033"/><circle cx="-0.1805" cy="0.1822" r="0.0033"/><circle cx="-0.1795" cy="0.1805" r="0.0033"/><circle cx="-0.1784" cy="0.1818" r="0.0033"/><circle cx="-0.1774" cy="0.1822" r="0.0033"/><circle cx="-0.1764" cy="0.1825" r="0.0033"/><circle cx="-0.1753" cy="0.1825" r="0.0033"/><circle cx="-0.1743" cy="0.1825" r="0.0033"/><circle cx="-0.1732" cy="0.1825" r="0.0033"/><circle cx="-0.1722" cy="0.1818" r="0.0033"/><circle cx="-0.1711" cy="0.1818" r="0.0033"/><circle cx="-0.1701" cy="0.1815" r="0.0033"/><circle cx="-0.1691" cy="0.1822" r="0.0033"/><circle cx="-0.1680" cy="0.1818" r="0.0033"/><circle cx="-0.1670" cy="0.1822" r="0.0033"/><circle cx="-0.1659" cy="0.1818" r="0.0033"/><circle cx="-0.1649" cy="0.1822" r="0.0033"/><circle cx="-0.1638" cy="0.1822" r="0.0033"/><circle cx="-0.1628" cy="0.1818" r="0.0033"/><circle cx="-0.1617" cy="0.1818" r="0.0033"/><circle cx="-0.1607" cy="0.1698" r="0.0033"/><circle cx="-0.1597" cy="0.1818" r="0.0033"/><circle cx="-0.1586" cy="0.1805" r="0.0033"/><circle cx="-0.1576" cy="0.1818" r="0.0033"/><circle cx="-0.1565" cy="0.1825" r="0.0033"/><circle cx="-0.1555" cy="0.1825" r="0.0033"/><circle cx="-0.1544" cy="0.1825" r="0.0033"/><circle cx="-0.1534" cy="0.1822" r="0.0033"/><circle cx="-0.1523" cy="0.1822" r="0.0033"/><circle cx="-0.1513" cy="0.1815" r="0.0033"/><circle cx="-0.1503" cy="0.1812" r="0.0033"/><circle cx="-0.1492" cy="0.1812" r="0.0033"/><circle cx="-0.1482" cy="0.1818" r="0.0033"/><circle cx="-0.1471" cy="0.1822" r="0.0033"/><circle cx="-0.1461" cy="0.1812" r="0.0033"/><circle cx="-0.1450" cy="0.1818" r="0.0033"/><circle cx="-0.1440" cy="0.1822" r="0.0033"/><circle cx="-0.1429" cy="0.1818" r="0.0033"/><circle cx="-0.1419" cy="0.1812" r="0.0033"/><circle cx="-0.1409" cy="0.1818" r="0.0033"/><circle cx="-0.1398" cy="0.1818" r="0.0033"/><circle cx="-0.1388" cy="0.1815" r="0.0033"/><circle cx="-0.1377" cy="0.1825" r="0.0033"/><circle cx="-0.1367" cy="0.1818" r="0.0033"/><circle cx="-0.1356" cy="0.1822" r="0.0033"/><circle cx="-0.1346" cy="0.1822" r="0.0033"/><circle cx="-0.1335" cy="0.1822" r="0.0033"/><circle cx="-0.1325" cy="0.1717" r="0.0033"/><circle cx="-0.1315" cy="0.1818" r="0.0033"/><circle cx="-0.1304" cy="0.1822" r="0.0033"/><circle cx="-0.1294" cy="0.1825" r="0.0033"/><circle cx="-0.1283" cy="0.1822" r="0.0033"/><circle cx="-0.1273" cy="0.1818" r="0.0033"/><circle cx="-0.1262" cy="0.1815" r="0.0033"/><circle cx="-0.1252" cy="0.1818" r="0.0033"/><circle cx="-0.1241" cy="0.1822" r="0.0033"/><circle cx="-0.1231" cy="0.1818" r="0.0033"/><circle cx="-0.1221" cy="0.1822" r="0.0033"/><circle cx="-0.1210" cy="0.1822" r="0.0033"/><circle cx="-0.1200" cy="0.1822" r="0.0033"/><circle cx="-0.1189" cy="0.1822" r="0.0033"/><circle cx="-0.1179" cy="0.1822" r="0.0033"/><circle cx="-0.1168" cy="0.1818" r="0.0033"/><circle cx="-0.1158" cy="0.1822" r="0.0033"/><circle cx="-0.1148" cy="0.1818" r="0.0033"/><circle cx="-0.1137" cy="0.1818" r="0.0033"/><circle cx="-0.1127" cy="0.1818" r="0.0033"/><circle cx="-0.1116" cy="0.1822" r="0.0033"/><circle cx="-0.1106" cy="0.1822" r="0.0033"/><circle cx="-0.1095" cy="0.1818" r="0.0033"/><circle cx="-0.1085" cy="0.1818" r="0.0033"/><circle cx="-0.1074" cy="0.1822" r="0.0033"/><circle cx="-0.1064" cy="0.1818" r="0.0033"/><circle cx="-0.1054" cy="0.1818" r="0.0033"/><circle cx="-0.1043" cy="0.1818" r="0.0033"/><circle cx="-0.1033" cy="0.1822" r="0.0033"/><circle cx="-0.1022" cy="0.1822" r="0.0033"/><circle cx="-0.1012" cy="0.1822" r="0.0033"/><circle cx="-0.1001" cy="0.1822" r="0.0033"/><circle cx="-0.0991" cy="0.1815" r="0.0033"/><circle cx="-0.0980" cy="0.1818" r="0.0033"/><circle cx="-0.0970" cy="0.1822" r="0.0033"/><circle cx="-0.0960" cy="0.1822" r="0.0033"/><circle cx="-0.0949" cy="0.1822" r="0.0033"/><circle cx="-0.0939" cy="0.1818" r="0.0033"/><circle cx="-0.0928" cy="0.1822" r="0.0033"/><circle cx="-0.0918" cy="0.1815" r="0.0033"/><circle cx="-0.0907" cy="0.1815" r="0.0033"/><circle cx="-0.0897" cy="0.1818" r="0.0033"/><circle cx="-0.0886" cy="0.1818" r="0.0033"/><circle cx="-0.0876" cy="0.1822" r="0.0033"/><circle cx="-0.0866" cy="0.1822" r="0.0033"/><circle cx="-0.0855" cy="0.1818" r="0.0033"/><circle cx="-0.0845" cy="0.1815" r="0.0033"/><circle cx="-0.0834" cy="0.1818" r="0.0033"/><circle cx="-0.0824" cy="0.1815" r="0.0033"/><circle cx="-0.0813" cy="0.1815" r="0.0033"/><circle cx="-0.0803" cy="0.1812" r="0.0033"/><circle cx="-0.0792" cy="0.1815" r="0.0033"/><circle cx="-0.0782" cy="0.1815" r="0.0033"/><circle cx="-0.0772" cy="0.1815" r="0.0033"/><circle cx="-0.0761" cy="0.1809" r="0.0033"/><circle cx="-0.0751" cy="0.1815" r="0.0033"/><circle cx="-0.0740" cy="0.1818" r="0.0033"/><circle cx="-0.0730" cy="0.1818" r="0.0033"/><circle cx="-0.0719" cy="0.1815" r="0.0033"/><circle cx="-0.0709" cy="0.1818" r="0.0033"/><circle cx="-0.0698" cy="0.1815" r="0.0033"/><circle cx="-0.0688" cy="0.1812" r="0.0033"/><circle cx="-0.0678" cy="0.1818" r="0.0033"/><circle cx="-0.0667" cy="0.1815" r="0.0033"/><circle cx="-0.0657" cy="0.1818" r="0.0033"/><circle cx="-0.0646" cy="0.1822" r="0.0033"/><circle cx="-0.0636" cy="0.1812" r="0.0033"/><circle cx="-0.0625" cy="0.1818" r="0.0033"/><circle cx="-0.0615" cy="0.1818" r="0.0033"/><circle cx="-0.0605" cy="0.1822" r="0.0033"/><circle cx="-0.0594" cy="0.1818" r="0.0033"/><circle cx="-0.0584" cy="0.1822" r="0.0033"/><circle cx="-0.0573" cy="0.1818" r="0.0033"/><circle cx="-0.0563" cy="0.1818" r="0.0033"/><circle cx="-0.0552" cy="0.1822" r="0.0033"/><circle cx="-0.0542" cy="0.1822" r="0.0033"/><circle cx="-0.0531" cy="0.1818" r="0.0033"/><circle cx="-0.0521" cy="0.1822" r="0.0033"/><circle cx="-0.0511" cy="0.1822" r="0.0033"/><circle cx="-0.0500" cy="0.1822" r="0.0033"/><circle cx="-0.0490" cy="0.1818" r="0.0033"/><circle cx="-0.0479" cy="0.1818" r="0.0033"/><circle cx="-0.0469" cy="0.1822" r="0.0033"/><circle cx="-0.0458" cy="0.1822" r="0.0033"/><circle cx="-0.0448" cy="0.1818" r="0.0033"/><circle cx="-0.0437" cy="0.1822" r="0.0033"/><circle cx="-0.0427" cy="0.1818" r="0.0033"/><circle cx="-0.0417" cy="0.1822" r="0.0033"/><circle cx="-0.0406" cy="0.1815" r="0.0033"/><circle cx="-0.0396" cy="0.1822" r="0.0033"/><circle cx="-0.0385" cy="0.1818" r="0.0033"/><circle cx="-0.0375" cy="0.1818" r="0.0033"/><circle cx="-0.0364" cy="0.1822" r="0.0033"/><circle cx="-0.0354" cy="0.1822" r="0.0033"/><circle cx="-0.0343" cy="0.1818" r="0.0033"/><circle cx="-0.0333" cy="0.1815" r="0.0033"/><circle cx="-0.0323" cy="0.1818" r="0.0033"/><circle cx="-0.0312" cy="0.1818" r="0.0033"/><circle cx="-0.0302" cy="0.1822" r="0.0033"/><circle cx="-0.0291" cy="0.1822" r="0.0033"/><circle cx="-0.0281" cy="0.1812" r="0.0033"/><circle cx="-0.0270" cy="0.1815" r="0.0033"/><circle cx="-0.0260" cy="0.1815" r="0.0033"/><circle cx="-0.0249" cy="0.1818" r="0.0033"/><circle cx="-0.0239" cy="0.1818" r="0.0033"/><circle cx="-0.0229" cy="0.1818" r="0.0033"/><circle cx="-0.0218" cy="0.1822" r="0.0033"/><circle cx="-0.0208" cy="0.1815" r="0.0033"/><circle cx="-0.0197" cy="0.1818" r="0.0033"/><circle cx="-0.0187" cy="0.1822" r="0.0033"/><circle cx="-0.0176" cy="0.1818" r="0.0033"/><circle cx="-0.0166" cy="0.1825" r="0.0033"/><circle cx="-0.0155" cy="0.1818" r="0.0033"/><circle cx="-0.0145" cy="0.1822" r="0.0033"/><circle cx="-0.0135" cy="0.1815" r="0.0033"/><circle cx="-0.0124" cy="0.1815" r="0.0033"/><circle cx="-0.0114" cy="0.1818" r="0.0033"/><circle cx="-0.0103" cy="0.1825" r="0.0033"/><circle cx="-0.0093" cy="0.1822" r="0.0033"/><circle cx="-0.0082" cy="0.1822" r="0.0033"/><circle cx="-0.0072" cy="0.1822" r="0.0033"/><circle cx="-0.0061" cy="0.1818" r="0.0033"/><circle cx="-0.0051" cy="0.1822" r="0.0033"/><circle cx="-0.0041" cy="0.1822" r="0.0033"/><circle cx="-0.0030" cy="0.1818" r="0.0033"/><circle cx="-0.0020" cy="0.1815" r="0.0033"/><circle cx="-0.0009" cy="0.1818" r="0.0033"/><circle cx="0.0001" cy="0.1822" r="0.0033"/><circle cx="0.0012" cy="0.1818" r="0.0033"/><circle cx="0.0022" cy="0.1822" r="0.0033"/><circle cx="0.0032" cy="0.1818" r="0.0033"/><circle cx="0.0043" cy="0.1822" r="0.0033"/><circle cx="0.0053" cy="0.1822" r="0.0033"/><circle cx="0.0064" cy="0.1818" r="0.0033"/><circle cx="0.0074" cy="0.1822" r="0.0033"/><circle cx="0.0085" cy="0.1818" r="0.0033"/><circle cx="0.0095" cy="0.1822" r="0.0033"/><circle cx="0.0106" cy="0.1822" r="0.0033"/><circle cx="0.0116" cy="0.1822" r="0.0033"/><circle cx="0.0126" cy="0.1818" r="0.0033"/><circle cx="0.0137" cy="0.1822" r="0.0033"/><circle cx="0.0147" cy="0.1818" r="0.0033"/><circle cx="0.0158" cy="0.1818" r="0.0033"/><circle cx="0.0168" cy="0.1815" r="0.0033"/><circle cx="0.0179" cy="0.1822" r="0.0033"/><circle cx="0.0189" cy="0.1818" r="0.0033"/><circle cx="0.0200" cy="0.1812" r="0.0033"/><circle cx="0.0210" cy="0.1818" r="0.0033"/><circle cx="0.0220" cy="0.1822" r="0.0033"/><circle cx="0.0231" cy="0.1818" r="0.0033"/><circle cx="0.0241" cy="0.1812" r="0.0033"/><circle cx="0.0252" cy="0.1822" r="0.0033"/><circle cx="0.0262" cy="0.1818" r="0.0033"/><circle cx="0.0273" cy="0.1822" r="0.0033"/><circle cx="0.0283" cy="0.1822" r="0.0033"/><circle cx="0.0294" cy="0.1825" r="0.0033"/><circle cx="0.0304" cy="0.1822" r="0.0033"/><circle cx="0.0314" cy="0.1818" r="0.0033"/><circle cx="0.0325" cy="0.1818" r="0.0033"/><circle cx="0.0335" cy="0.1818" r="0.0033"/><circle cx="0.0346" cy="0.1822" r="0.0033"/><circle cx="0.0356" cy="0.1815" r="0.0033"/><circle cx="0.0367" cy="0.1822" r="0.0033"/><circle cx="0.0377" cy="0.1822" r="0.0033"/><circle cx="0.0388" cy="0.1825" r="0.0033"/><circle cx="0.0398" cy="0.1822" r="0.0033"/><circle cx="0.0408" cy="0.1822" r="0.0033"/><circle cx="0.0419" cy="0.1704" r="0.0033"/><circle cx="0.0429" cy="0.1812" r="0.0033"/><circle cx="0.0440" cy="0.1818" r="0.0033"/><circle cx="0.0450" cy="0.1812" r="0.0033"/><circle cx="0.0461" cy="0.1822" r="0.0033"/><circle cx="0.0471" cy="0.1822" r="0.0033"/><circle cx="0.0482" cy="0.1825" r="0.0033"/><circle cx="0.0492" cy="0.1822" r="0.0033"/><circle cx="0.0502" cy="0.1818" r="0.0033"/><circle cx="0.0513" cy="0.1815" r="0.0033"/><circle cx="0.0523" cy="0.1818" r="0.0033"/><circle cx="0.0534" cy="0.1822" r="0.0033"/><circle cx="0.0544" cy="0.1822" r="0.0033"/><circle cx="0.0555" cy="0.1822" r="0.0033"/><circle cx="0.0565" cy="0.1818" r="0.0033"/><circle cx="0.0575" cy="0.1815" r="0.0033"/><circle cx="0.0586" cy="0.1822" r="0.0033"/><circle cx="0.0596" cy="0.1825" r="0.0033"/><circle cx="0.0607" cy="0.1815" r="0.0033"/><circle cx="0.0617" cy="0.1818" r="0.0033"/><circle cx="0.0628" cy="0.1818" r="0.0033"/><circle cx="0.0638" cy="0.1815" r="0.0033"/><circle cx="0.0649" cy="0.1822" r="0.0033"/><circle cx="0.0659" cy="0.0584" r="0.0033"/><circle cx="0.0669" cy="0.1786" r="0.0033"/><circle cx="0.0680" cy="0.1818" r="0.0033"/><circle cx="0.0690" cy="0.1822" r="0.0033"/><circle cx="0.0701" cy="0.1822" r="0.0033"/><circle cx="0.0711" cy="0.1815" r="0.0033"/><circle cx="0.0722" cy="0.1818" r="0.0033"/><circle cx="0.0732" cy="0.1818" r="0.0033"/><circle cx="0.0743" cy="0.0897" r="0.0033"/><circle cx="0.0753" cy="0.1796" r="0.0033"/><circle cx="0.0763" cy="0.1812" r="0.0033"/><circle cx="0.0774" cy="0.1815" r="0.0033"/><circle cx="0.0784" cy="0.1818" r="0.0033"/><circle cx="0.0795" cy="0.1822" r="0.0033"/><circle cx="0.0805" cy="0.1818" r="0.0033"/><circle cx="0.0816" cy="0.1818" r="0.0033"/><circle cx="0.0826" cy="0.1815" r="0.0033"/><circle cx="0.0837" cy="0.1822" r="0.0033"/><circle cx="0.0847" cy="0.1822" r="0.0033"/><circle cx="0.0857" cy="0.1818" r="0.0033"/><circle cx="0.0868" cy="0.1822" r="0.0033"/><circle cx="0.0878" cy="0.1822" r="0.0033"/><circle cx="0.0889" cy="0.1815" r="0.0033"/><circle cx="0.0899" cy="0.1818" r="0.0033"/><circle cx="0.0910" cy="0.1818" r="0.0033"/><circle cx="0.0920" cy="0.1818" r="0.0033"/><circle cx="0.0931" cy="0.1818" r="0.0033"/><circle cx="0.0941" cy="0.1089" r="0.0033"/><circle cx="0.0951" cy="0.1802" r="0.0033"/><circle cx="0.0962" cy="0.1818" r="0.0033"/><circle cx="0.0972" cy="0.1809" r="0.0033"/><circle cx="0.0983" cy="0.1822" r="0.0033"/><circle cx="0.0993" cy="0.1822" r="0.0033"/><circle cx="0.1004" cy="0.1822" r="0.0033"/><circle cx="0.1014" cy="0.1818" r="0.0033"/><circle cx="0.1025" cy="0.1822" r="0.0033"/><circle cx="0.1035" cy="0.1818" r="0.0033"/><circle cx="0.1045" cy="0.1379" r="0.0033"/><circle cx="0.1056" cy="0.1809" r="0.0033"/><circle cx="0.1066" cy="0.1815" r="0.0033"/><circle cx="0.1077" cy="0.1815" r="0.0033"/><circle cx="0.1087" cy="0.1815" r="0.0033"/><circle cx="0.1098" cy="0.1812" r="0.0033"/><circle cx="0.1108" cy="0.1812" r="0.0033"/><circle cx="0.1118" cy="0.1815" r="0.0033"/><circle cx="0.1129" cy="0.1818" r="0.0033"/><circle cx="0.1139" cy="0.1822" r="0.0033"/><circle cx="0.1150" cy="0.1818" r="0.0033"/><circle cx="0.1160" cy="0.1818" r="0.0033"/><circle cx="0.1171" cy="0.1822" r="0.0033"/><circle cx="0.1181" cy="0.1818" r="0.0033"/><circle cx="0.1192" cy="0.1818" r="0.0033"/><circle cx="0.1202" cy="0.1815" r="0.0033"/><circle cx="0.1212" cy="0.1818" r="0.0033"/><circle cx="0.1223" cy="0.1818" r="0.0033"/><circle cx="0.1233" cy="0.1822" r="0.0033"/><circle cx="0.1244" cy="0.1822" r="0.0033"/><circle cx="0.1254" cy="0.1822" r="0.0033"/><circle cx="0.1265" cy="0.1818" r="0.0033"/><circle cx="0.1275" cy="0.1818" r="0.0033"/><circle cx="0.1286" cy="0.1818" r="0.0033"/><circle cx="0.1296" cy="0.1818" r="0.0033"/><circle cx="0.1306" cy="0.1818" r="0.0033"/><circle cx="0.1317" cy="0.1822" r="0.0033"/><circle cx="0.1327" cy="0.1818" r="0.0033"/><circle cx="0.1338" cy="0.1822" r="0.0033"/><circle cx="0.1348" cy="0.1818" r="0.0033"/><circle cx="0.1359" cy="0.1818" r="0.0033"/><circle cx="0.1369" cy="0.1822" r="0.0033"/><circle cx="0.1380" cy="0.1815" r="0.0033"/><circle cx="0.1390" cy="0.1818" r="0.0033"/><circle cx="0.1400" cy="0.1822" r="0.0033"/><circle cx="0.1411" cy="0.1815" r="0.0033"/><circle cx="0.1421" cy="0.1822" r="0.0033"/><circle cx="0.1432" cy="0.1818" r="0.0033"/><circle cx="0.1442" cy="0.1822" r="0.0033"/><circle cx="0.1453" cy="0.1822" r="0.0033"/><circle cx="0.1463" cy="0.1818" r="0.0033"/><circle cx="0.1474" cy="0.1822" r="0.0033"/><circle cx="0.1484" cy="0.1818" r="0.0033"/><circle cx="0.1494" cy="0.1818" r="0.0033"/><circle cx="0.1505" cy="0.1232" r="0.0033"/><circle cx="0.1515" cy="0.1805" r="0.0033"/><circle cx="0.1526" cy="0.1812" r="0.0033"/><circle cx="0.1536" cy="0.1818" r="0.0033"/><circle cx="0.1547" cy="0.1812" r="0.0033"/><circle cx="0.1557" cy="0.1818" r="0.0033"/><circle cx="0.1568" cy="0.1818" r="0.0033"/><circle cx="0.1578" cy="0.1822" r="0.0033"/><circle cx="0.1588" cy="0.0962" r="0.0033"/><circle cx="0.1599" cy="0.1815" r="0.0033"/><circle cx="0.1609" cy="0.1822" r="0.0033"/><circle cx="0.1620" cy="0.1809" r="0.0033"/><circle cx="0.1630" cy="0.1822" r="0.0033"/><circle cx="0.1641" cy="0.1818" r="0.0033"/><circle cx="0.1651" cy="0.1818" r="0.0033"/><circle cx="0.1661" cy="0.1815" r="0.0033"/><circle cx="0.1672" cy="0.1818" r="0.0033"/><circle cx="0.1682" cy="0.1818" r="0.0033"/><circle cx="0.1693" cy="0.1818" r="0.0033"/><circle cx="0.1703" cy="0.1818" r="0.0033"/><circle cx="0.1714" cy="0.0968" r="0.0033"/><circle cx="0.1724" cy="0.1783" r="0.0033"/><circle cx="0.1735" cy="0.1815" r="0.0033"/><circle cx="0.1745" cy="0.1818" r="0.0033"/><circle cx="0.1755" cy="0.1818" r="0.0033"/><circle cx="0.1766" cy="0.1815" r="0.0033"/><circle cx="0.1776" cy="0.1822" r="0.0033"/><circle cx="0.1787" cy="0.1822" r="0.0033"/><circle cx="0.1797" cy="0.1822" r="0.0033"/><circle cx="0.1808" cy="0.1822" r="0.0033"/><circle cx="0.1818" cy="0.1822" r="0.0033"/><circle cx="0.1829" cy="0.1818" r="0.0033"/><circle cx="0.1839" cy="0.1812" r="0.0033"/><circle cx="0.1849" cy="0.1818" r="0.0033"/><circle cx="0.1860" cy="0.1818" r="0.0033"/><circle cx="0.1870" cy="0.1822" r="0.0033"/><circle cx="0.1881" cy="0.1818" r="0.0033"/><circle cx="0.1891" cy="0.1825" r="0.0033"/><circle cx="0.1902" cy="0.1818" r="0.0033"/><circle cx="0.1912" cy="0.1818" r="0.0033"/><circle cx="0.1923" cy="0.1818" r="0.0033"/><circle cx="0.1933" cy="0.1818" r="0.0033"/><circle cx="0.1943" cy="0.1815" r="0.0033"/><circle cx="0.1954" cy="0.1818" r="0.0033"/><circle cx="0.1964" cy="0.1815" r="0.0033"/><circle cx="0.1975" cy="0.1822" r="0.0033"/><circle cx="0.1985" cy="0.1822" r="0.0033"/><circle cx="0.1996" cy="0.1825" r="0.0033"/><circle cx="0.2006" cy="0.1770" r="0.0033"/><circle cx="0.2017" cy="0.1822" r="0.0033"/><circle cx="0.2027" cy="0.1822" r="0.0033"/><circle cx="0.2037" cy="0.1818" r="0.0033"/><circle cx="0.2048" cy="0.1822" r="0.0033"/><circle cx="0.2058" cy="0.1818" r="0.0033"/><circle cx="0.2069" cy="0.1822" r="0.0033"/><circle cx="0.2079" cy="0.1822" r="0.0033"/><circle cx="0.2090" cy="0.1825" r="0.0033"/><circle cx="0.2100" cy="0.1822" r="0.0033"/><circle cx="0.2111" cy="0.1825" r="0.0033"/><circle cx="0.2121" cy="0.1818" r="0.0033"/><circle cx="0.2131" cy="0.1815" r="0.0033"/><circle cx="0.2142" cy="0.1818" r="0.0033"/><circle cx="0.2152" cy="0.1825" r="0.0033"/><circle cx="0.2163" cy="0.0470" r="0.0033"/><circle cx="0.2173" cy="0.1789" r="0.0033"/><circle cx="0.2184" cy="0.1818" r="0.0033"/><circle cx="0.2194" cy="0.1822" r="0.0033"/><circle cx="0.2204" cy="0.1818" r="0.0033"/><circle cx="0.2215" cy="0.1818" r="0.0033"/><circle cx="0.2225" cy="0.1822" r="0.0033"/><circle cx="0.2236" cy="0.1818" r="0.0033"/><circle cx="0.2246" cy="0.1822" r="0.0033"/><circle cx="0.2257" cy="0.1818" r="0.0033"/><circle cx="0.2267" cy="0.1822" r="0.0033"/><circle cx="0.2278" cy="0.1818" r="0.0033"/><circle cx="0.2288" cy="0.1815" r="0.0033"/><circle cx="0.2298" cy="0.1822" r="0.0033"/><circle cx="0.2309" cy="0.1822" r="0.0033"/><circle cx="0.2319" cy="0.1815" r="0.0033"/><circle cx="0.2330" cy="0.1812" r="0.0033"/><circle cx="0.2340" cy="0.1822" r="0.0033"/><circle cx="0.2351" cy="0.1822" r="0.0033"/><circle cx="0.2361" cy="0.1822" r="0.0033"/><circle cx="0.2372" cy="0.1815" r="0.0033"/><circle cx="0.2382" cy="0.0757" r="0.0033"/><circle cx="0.2392" cy="0.1792" r="0.0033"/><circle cx="0.2403" cy="0.1805" r="0.0033"/><circle cx="0.2413" cy="0.1294" r="0.0033"/><circle cx="0.2424" cy="0.1802" r="0.0033"/><circle cx="0.2434" cy="0.1815" r="0.0033"/><circle cx="0.2445" cy="0.1815" r="0.0033"/><circle cx="0.2455" cy="0.1818" r="0.0033"/><circle cx="0.2466" cy="0.1822" r="0.0033"/><circle cx="0.2476" cy="0.1822" r="0.0033"/><circle cx="0.2486" cy="0.1828" r="0.0033"/><circle cx="0.2497" cy="0.1815" r="0.0033"/><circle cx="0.2507" cy="0.1766" r="0.0033"/><circle cx="0.2518" cy="0.1812" r="0.0033"/><circle cx="0.2528" cy="0.1818" r="0.0033"/><circle cx="0.2539" cy="0.1815" r="0.0033"/><circle cx="0.2549" cy="0.1815" r="0.0033"/><circle cx="0.2560" cy="0.1822" r="0.0033"/><circle cx="0.2570" cy="0.1822" r="0.0033"/><circle cx="0.2580" cy="0.1822" r="0.0033"/><circle cx="0.2591" cy="0.1818" r="0.0033"/><circle cx="0.2601" cy="0.1812" r="0.0033"/><circle cx="0.2612" cy="0.1815" r="0.0033"/><circle cx="0.2622" cy="0.1822" r="0.0033"/><circle cx="0.2633" cy="0.1818" r="0.0033"/><circle cx="0.2643" cy="0.1825" r="0.0033"/><circle cx="0.2654" cy="0.1822" r="0.0033"/><circle cx="0.2664" cy="0.1822" r="0.0033"/><circle cx="0.2674" cy="0.1818" r="0.0033"/><circle cx="0.2685" cy="0.1822" r="0.0033"/><circle cx="0.2695" cy="0.1818" r="0.0033"/><circle cx="0.2706" cy="0.1034" r="0.0033"/><circle cx="0.2716" cy="0.1802" r="0.0033"/><circle cx="0.2727" cy="0.1809" r="0.0033"/><circle cx="0.2737" cy="0.1812" r="0.0033"/><circle cx="0.2748" cy="0.1815" r="0.0033"/><circle cx="0.2758" cy="0.1815" r="0.0033"/><circle cx="0.2768" cy="0.1822" r="0.0033"/><circle cx="0.2779" cy="0.1822" r="0.0033"/><circle cx="0.2789" cy="0.1822" r="0.0033"/><circle cx="0.2800" cy="0.1818" r="0.0033"/><circle cx="0.2810" cy="0.1822" r="0.0033"/><circle cx="0.2821" cy="0.1815" r="0.0033"/><circle cx="0.2831" cy="0.1818" r="0.0033"/><circle cx="0.2841" cy="0.1809" r="0.0033"/><circle cx="0.2852" cy="0.1815" r="0.0033"/><circle cx="0.2862" cy="0.1818" r="0.0033"/><circle cx="0.2873" cy="0.1812" r="0.0033"/><circle cx="0.2883" cy="0.1812" r="0.0033"/><circle cx="0.2894" cy="0.1822" r="0.0033"/><circle cx="0.2904" cy="0.1822" r="0.0033"/><circle cx="0.2915" cy="0.1822" r="0.0033"/><circle cx="0.2925" cy="0.1818" r="0.0033"/><circle cx="0.2935" cy="0.1815" r="0.0033"/><circle cx="0.2946" cy="0.1818" r="0.0033"/><circle cx="0.2956" cy="0.1818" r="0.0033"/><circle cx="0.2967" cy="0.1822" r="0.0033"/><circle cx="0.2977" cy="0.1812" r="0.0033"/><circle cx="0.2988" cy="0.1815" r="0.0033"/><circle cx="0.2998" cy="0.1822" r="0.0033"/><circle cx="0.3009" cy="0.1812" r="0.0033"/><circle cx="0.3019" cy="0.1818" r="0.0033"/><circle cx="0.3029" cy="0.1812" r="0.0033"/><circle cx="0.3040" cy="0.1812" r="0.0033"/><circle cx="0.3050" cy="0.1815" r="0.0033"/><circle cx="0.3061" cy="0.1815" r="0.0033"/><circle cx="0.3071" cy="0.1812" r="0.0033"/><circle cx="0.3082" cy="0.1818" r="0.0033"/><circle cx="0.3092" cy="0.1463" r="0.0033"/><circle cx="0.3103" cy="0.1805" r="0.0033"/><circle cx="0.3113" cy="0.1812" r="0.0033"/><circle cx="0.3123" cy="0.1818" r="0.0033"/><circle cx="0.3134" cy="0.1815" r="0.0033"/><circle cx="0.3144" cy="0.1818" r="0.0033"/><circle cx="0.3155" cy="0.1818" r="0.0033"/><circle cx="0.3165" cy="0.1809" r="0.0033"/><circle cx="0.3176" cy="0.1818" r="0.0033"/><circle cx="0.3186" cy="0.1799" r="0.0033"/><circle cx="0.3197" cy="0.1848" r="0.0033"/><circle cx="0.3207" cy="0.1910" r="0.0033"/><circle cx="0.3217" cy="0.1923" r="0.0033"/><circle cx="0.3228" cy="0.1913" r="0.0033"/><circle cx="0.3238" cy="0.1913" r="0.0033"/><circle cx="0.3249" cy="0.1913" r="0.0033"/><circle cx="0.3259" cy="0.1919" r="0.0033"/><circle cx="0.3270" cy="0.1919" r="0.0033"/><circle cx="0.3280" cy="0.1916" r="0.0033"/><circle cx="0.3291" cy="0.1919" r="0.0033"/><circle cx="0.3301" cy="0.1916" r="0.0033"/><circle cx="0.3311" cy="0.1919" r="0.0033"/><circle cx="0.3322" cy="0.1916" r="0.0033"/><circle cx="0.3332" cy="0.1923" r="0.0033"/><circle cx="0.3343" cy="0.1916" r="0.0033"/><circle cx="0.3353" cy="0.1916" r="0.0033"/><circle cx="0.3364" cy="0.1926" r="0.0033"/><circle cx="0.3374" cy="0.1919" r="0.0033"/><circle cx="0.3384" cy="0.1919" r="0.0033"/><circle cx="0.3395" cy="0.1923" r="0.0033"/><circle cx="0.3405" cy="0.1916" r="0.0033"/><circle cx="0.3416" cy="0.1919" r="0.0033"/><circle cx="0.3426" cy="0.1916" r="0.0033"/><circle cx="0.3437" cy="0.1919" r="0.0033"/><circle cx="0.3447" cy="0.1913" r="0.0033"/><circle cx="0.3458" cy="0.1913" r="0.0033"/><circle cx="0.3468" cy="0.1913" r="0.0033"/><circle cx="0.3478" cy="0.1916" r="0.0033"/><circle cx="0.3489" cy="0.1919" r="0.0033"/><circle cx="0.3499" cy="0.1910" r="0.0033"/><circle cx="0.3510" cy="0.1916" r="0.0033"/><circle cx="0.3520" cy="0.1916" r="0.0033"/><circle cx="0.3531" cy="0.1913" r="0.0033"/><circle cx="0.3541" cy="0.1919" r="0.0033"/><circle cx="0.3552" cy="0.1919" r="0.0033"/><circle cx="0.3562" cy="0.1919" r="0.0033"/><circle cx="0.3572" cy="0.1919" r="0.0033"/><circle cx="0.3583" cy="0.1916" r="0.0033"/><circle cx="0.3593" cy="0.1923" r="0.0033"/><circle cx="0.3604" cy="0.1923" r="0.0033"/><circle cx="0.3614" cy="0.1916" r="0.0033"/><circle cx="0.3625" cy="0.1916" r="0.0033"/><circle cx="0.3635" cy="0.1910" r="0.0033"/><circle cx="0.3646" cy="0.1919" r="0.0033"/><circle cx="0.3656" cy="0.1923" r="0.0033"/><circle cx="0.3666" cy="0.1910" r="0.0033"/><circle cx="0.3677" cy="0.1913" r="0.0033"/><circle cx="0.3687" cy="0.1919" r="0.0033"/><circle cx="0.3698" cy="0.1913" r="0.0033"/><circle cx="0.3708" cy="0.1916" r="0.0033"/><circle cx="0.3719" cy="0.1916" r="0.0033"/><circle cx="0.3729" cy="0.1906" r="0.0033"/><circle cx="0.3740" cy="0.1910" r="0.0033"/><circle cx="0.3750" cy="0.1916" r="0.0033"/><circle cx="0.3760" cy="0.1923" r="0.0033"/><circle cx="0.3771" cy="0.1916" r="0.0033"/><circle cx="0.3781" cy="0.1916" r="0.0033"/><circle cx="0.3792" cy="0.1926" r="0.0033"/><circle cx="0.3802" cy="0.1923" r="0.0033"/><circle cx="0.3813" cy="0.1906" r="0.0033"/><circle cx="0.3823" cy="0.1913" r="0.0033"/><circle cx="0.3834" cy="0.1919" r="0.0033"/><circle cx="0.3844" cy="0.1916" r="0.0033"/><circle cx="0.3854" cy="0.1916" r="0.0033"/><circle cx="0.3865" cy="0.1919" r="0.0033"/><circle cx="0.3875" cy="0.1916" r="0.0033"/><circle cx="0.3886" cy="0.1923" r="0.0033"/><circle cx="0.3896" cy="0.1923" r="0.0033"/><circle cx="0.3907" cy="0.1923" r="0.0033"/><circle cx="0.3917" cy="0.1923" r="0.0033"/><circle cx="0.3927" cy="0.1923" r="0.0033"/><circle cx="0.3938" cy="0.1926" r="0.0033"/><circle cx="0.3948" cy="0.1919" r="0.0033"/><circle cx="0.3959" cy="0.1926" r="0.0033"/><circle cx="0.3969" cy="0.1926" r="0.0033"/><circle cx="0.3980" cy="0.1926" r="0.0033"/><circle cx="0.3990" cy="0.1923" r="0.0033"/><circle cx="0.4001" cy="0.1923" r="0.0033"/><circle cx="0.4011" cy="0.1923" r="0.0033"/><circle cx="0.4021" cy="0.1916" r="0.0033"/><circle cx="0.4032" cy="0.1923" r="0.0033"/><circle cx="0.4042" cy="0.1919" r="0.0033"/><circle cx="0.4053" cy="0.1926" r="0.0033"/><circle cx="0.4063" cy="0.1923" r="0.0033"/><circle cx="0.4074" cy="0.1926" r="0.0033"/><circle cx="0.4084" cy="0.1926" r="0.0033"/><circle cx="0.4095" cy="0.1923" r="0.0033"/><circle cx="0.4105" cy="0.1919" r="0.0033"/><circle cx="0.4115" cy="0.1923" r="0.0033"/><circle cx="0.4126" cy="0.1923" r="0.0033"/><circle cx="0.4136" cy="0.1923" r="0.0033"/><circle cx="0.4147" cy="0.1923" r="0.0033"/><circle cx="0.4157" cy="0.1923" r="0.0033"/><circle cx="0.4168" cy="0.1926" r="0.0033"/><circle cx="0.4178" cy="0.1919" r="0.0033"/><circle cx="0.4189" cy="0.1926" r="0.0033"/><circle cx="0.4199" cy="0.1923" r="0.0033"/><circle cx="0.4209" cy="0.1923" r="0.0033"/><circle cx="0.4220" cy="0.1926" r="0.0033"/><circle cx="0.4230" cy="0.1923" r="0.0033"/><circle cx="0.4241" cy="0.1923" r="0.0033"/><circle cx="0.4251" cy="0.1923" r="0.0033"/><circle cx="0.4262" cy="0.1919" r="0.0033"/><circle cx="0.4272" cy="0.1926" r="0.0033"/><circle cx="0.4283" cy="0.1923" r="0.0033"/><circle cx="0.4293" cy="0.1919" r="0.0033"/><circle cx="0.4303" cy="0.1923" r="0.0033"/><circle cx="0.4314" cy="0.1923" r="0.0033"/><circle cx="0.4324" cy="0.1929" r="0.0033"/><circle cx="0.4335" cy="0.1926" r="0.0033"/><circle cx="0.4345" cy="0.1926" r="0.0033"/><circle cx="0.4356" cy="0.1919" r="0.0033"/><circle cx="0.4366" cy="0.1926" r="0.0033"/><circle cx="0.4377" cy="0.1923" r="0.0033"/><circle cx="0.4387" cy="0.1926" r="0.0033"/><circle cx="0.4397" cy="0.1923" r="0.0033"/><circle cx="0.4408" cy="0.1926" r="0.0033"/><circle cx="0.4418" cy="0.1926" r="0.0033"/><circle cx="0.4429" cy="0.1923" r="0.0033"/><circle cx="0.4439" cy="0.1923" r="0.0033"/><circle cx="0.4450" cy="0.1919" r="0.0033"/><circle cx="0.4460" cy="0.1916" r="0.0033"/><circle cx="0.4470" cy="0.1923" r="0.0033"/><circle cx="0.4481" cy="0.1919" r="0.0033"/><circle cx="0.4491" cy="0.1923" r="0.0033"/><circle cx="0.4502" cy="0.1926" r="0.0033"/><circle cx="0.4512" cy="0.1926" r="0.0033"/><circle cx="0.4523" cy="0.1926" r="0.0033"/><circle cx="0.4533" cy="0.1923" r="0.0033"/><circle cx="0.4544" cy="0.1923" r="0.0033"/><circle cx="0.4554" cy="0.1923" r="0.0033"/><circle cx="0.4564" cy="0.1913" r="0.0033"/><circle cx="0.4575" cy="0.1919" r="0.0033"/><circle cx="0.4585" cy="0.1923" r="0.0033"/><circle cx="0.4596" cy="0.1923" r="0.0033"/><circle cx="0.4606" cy="0.1923" r="0.0033"/><circle cx="0.4617" cy="0.1923" r="0.0033"/><circle cx="0.4627" cy="0.1923" r="0.0033"/><circle cx="0.4638" cy="0.1923" r="0.0033"/><circle cx="0.4648" cy="0.1926" r="0.0033"/><circle cx="0.4658" cy="0.1926" r="0.0033"/></g></g><g class="averages"><g stroke-width="0.0020" stroke="rgb(66%, 7%, 55%)" stroke-opacity="1.0" fill="rgb(66%, 7%, 55%)" fill-opacity="1.0"><rect width="0.0330" height="0.0247" x="-0.5938" y="0.1689"/></g><g stroke-width="0.0020" stroke="rgb(96%, 60%, 92%)" stroke-opacity="1.0" fill="rgb(96%, 60%, 92%)" fill-opacity="1.0"><rect width="0.0330" height="0.0247" x="-0.5938" y="0.1696" rx="0.0100" ry="0.0100"/></g><g stroke-width="0.0020" stroke="rgb(100%, 71%, 35%)" stroke-opacity="1.0" fill="rgb(100%, 71%, 35%)" fill-opacity="1.0"><ellipse cx="-0.5773480933279179" cy="0.19176079041015487" rx="1.6495183740152162e-2" ry="1.2371387805114122e-2"/></g></g><g class="xrange"></g><g class="datapadding"></g></g><g class="hud"><g class="frame"><g stroke-width="0" stroke="rgb(0%, 0%, 0%)" stroke-opacity="0" fill="rgb(100%, 100%, 100%)" fill-opacity="0.02"><rect width="1.0662" height="0.6253" x="-0.5958" y="-0.3650"/></g></g><g class="axis"><g class="axisbar"><g stroke-width="0" stroke="rgb(0%, 0%, 0%)" stroke-opacity="0" fill="rgb(5%, 5%, 5%)" fill-opacity="0.4"><rect width="1.0470" height="0.0025" x="-0.5787" y="0.2666"/></g></g><g class="ticks"><g class="ticklines"><g stroke-width="0.0033" stroke="rgb(5%, 5%, 5%)" stroke-opacity="0.05" fill="none"><polyline points="-0.5773,0.2603 -0.5773,-0.3650"/><polyline points="-0.3685,0.2603 -0.3685,-0.3650"/><polyline points="-0.1597,0.2603 -0.1597,-0.3650"/><polyline points="0.0492,0.2603 0.0492,-0.3650"/><polyline points="0.2580,0.2603 0.2580,-0.3650"/><polyline points="0.4669,0.2603 0.4669,-0.3650"/></g></g><g class="tickglyph"><g stroke-width="0.0026" stroke="rgb(5%, 5%, 5%)" stroke-opacity="0.4" fill="rgb(5%, 5%, 5%)" fill-opacity="0.4"><polyline points="-0.5773,0.2871
-0.5773,0.2673"/><polyline points="-0.3685,0.2871
-0.3685,0.2673"/><polyline points="-0.1597,0.2871
-0.1597,0.2673"/><polyline points="0.0492,0.2871
0.0492,0.2673"/><polyline points="0.2580,0.2871
0.2580,0.2673"/><polyline points="0.4669,0.2871
0.4669,0.2673"/></g></g><g class="ticktext"><g stroke-width="0.0" stroke="none" fill="rgb(5%, 5%, 5%)" fill-opacity="1.0" font-size="0.0264" text-anchor="middle"><text x="-0.5773" y="0.3210">    0</text><text x="-0.3685" y="0.3210">  200</text><text x="-0.1597" y="0.3210">  400</text><text x="0.0492" y="0.3210">  600</text><text x="0.2580" y="0.3210">  800</text><text x="0.4669" y="0.3210">1,000</text></g></g></g></g><g class="axis"><g class="axisbar"><g stroke-width="0" stroke="rgb(0%, 0%, 0%)" stroke-opacity="0" fill="rgb(5%, 5%, 5%)" fill-opacity="0.4"><rect width="0.0028" height="0.6278" x="-0.5871" y="-0.3663"/></g></g><g class="ticks"><g class="ticklines"><g stroke-width="0.0033" stroke="rgb(5%, 5%, 5%)" stroke-opacity="0.05" fill="none"><polyline points="-0.5773,0.2603 0.4669,0.2603"/><polyline points="-0.5773,0.1822 0.4669,0.1822"/><polyline points="-0.5773,0.1040 0.4669,0.1040"/><polyline points="-0.5773,0.0258 0.4669,0.0258"/><polyline points="-0.5773,-0.0523 0.4669,-0.0523"/><polyline points="-0.5773,-0.1305 0.4669,-0.1305"/><polyline points="-0.5773,-0.2087 0.4669,-0.2087"/><polyline points="-0.5773,-0.2868 0.4669,-0.2868"/><polyline points="-0.5773,-0.3650 0.4669,-0.3650"/></g></g><g class="tickglyph"><g stroke-width="0.0026" stroke="rgb(5%, 5%, 5%)" stroke-opacity="0.4" fill="rgb(5%, 5%, 5%)" fill-opacity="0.4"><polyline points="-0.6060,0.2603
-0.5862,0.2603"/><polyline points="-0.6060,0.1822
-0.5862,0.1822"/><polyline points="-0.6060,0.1040
-0.5862,0.1040"/><polyline points="-0.6060,0.0258
-0.5862,0.0258"/><polyline points="-0.6060,-0.0523
-0.5862,-0.0523"/><polyline points="-0.6060,-0.1305
-0.5862,-0.1305"/><polyline points="-0.6060,-0.2087
-0.5862,-0.2087"/><polyline points="-0.6060,-0.2868
-0.5862,-0.2868"/><polyline points="-0.6060,-0.3650
-0.5862,-0.3650"/></g></g><g class="ticktext"><g stroke-width="0.0" stroke="none" fill="rgb(5%, 5%, 5%)" fill-opacity="1.0" font-size="0.0264" text-anchor="end"><text x="-0.6219" y="0.2672">     0</text><text x="-0.6219" y="0.1890">10,000</text><text x="-0.6219" y="0.1109">20,000</text><text x="-0.6219" y="0.0327">30,000</text><text x="-0.6219" y="-0.0455">40,000</text><text x="-0.6219" y="-0.1236">50,000</text><text x="-0.6219" y="-0.2018">60,000</text><text x="-0.6219" y="-0.2800">70,000</text><text x="-0.6219" y="-0.3581">80,000</text></g></g></g></g><g class="frame"><g stroke-width="0" stroke="rgb(0%, 0%, 0%)" stroke-opacity="0" fill="rgb(0%, 0%, 0%)" fill-opacity="0"><rect width="1.2865" height="0.7567" x="-0.75" y="-0.4031"/></g></g></g></g><g class="hud"><g class="title"><g stroke-width="0.0" stroke="none" fill="rgb(5%, 5%, 5%)" fill-opacity="1.0" font-size="0.0800" text-anchor="middle"><text x="0" y="-0.4516">sum: time</text></g></g><g class="legend"><g class="padding"></g><g class="padding"></g><g class="frame"><g stroke-width="0.0010" stroke="rgb(5%, 5%, 5%)" stroke-opacity="1.0" fill="rgb(5%, 5%, 5%)" fill-opacity="0"><rect width="0.8496" height="0.0648" x="-0.4248" y="0.4322"/></g></g><g class="legendContent"><g stroke-width="0.0006" stroke="rgb(100%, 71%, 35%)" stroke-opacity="1.0" fill="rgb(100%, 71%, 35%)" fill-opacity="1.0"><ellipse cx="0.3745222524433436" cy="0.464588377723971" rx="2.9993773553924994e-2" ry="2.2495330165443746e-2"/></g><g stroke-width="0.0" stroke="none" fill="rgb(5%, 5%, 5%)" fill-opacity="1.0" font-size="0.0320" text-anchor="start"><text x="0.1531" y="0.4706">best: 8,770</text></g><g stroke-width="0.0006" stroke="rgb(96%, 60%, 92%)" stroke-opacity="1.0" fill="rgb(96%, 60%, 92%)" fill-opacity="1.0"><rect width="0.0600" height="0.0450" x="0.1328" y="0.4421" rx="0.0100" ry="0.0100"/></g><g stroke-width="0.0" stroke="none" fill="rgb(5%, 5%, 5%)" fill-opacity="1.0" font-size="0.0320" text-anchor="start"><text x="-0.1163" y="0.4706">median: 10,000</text></g><g stroke-width="0.0006" stroke="rgb(66%, 7%, 55%)" stroke-opacity="1.0" fill="rgb(66%, 7%, 55%)" fill-opacity="1.0"><rect width="0.0600" height="0.0450" x="-0.1366" y="0.4421"/></g><g stroke-width="0.0" stroke="none" fill="rgb(5%, 5%, 5%)" fill-opacity="1.0" font-size="0.0320" text-anchor="start"><text x="-0.4048" y="0.4706">average: 10,100</text></g></g></g></g></svg>