<svg xmlns="http://www.w3.org/2000/svg" xmlns:xlink="http://www.w3.org/1999/xlink" width="442" height="300" viewBox="-0.75 -0.5156 1.4995 1.0156"><style>svg {
  color-scheme: light dark;
}
{
  .canvas g, .title g, .axisbar g, .ticktext g, .tickglyph g, .ticklines g, .legendContent g text {
    fill: rgb(5%, 5%, 5%);
  }
  .ticklines g, .tickglyph g, .legendBorder g {
    stroke: rgb(5%, 5%, 5%);
  }
  .legendBorder g {
    fill: rgb(94%, 94%, 94%);
  }
}
@media (prefers-color-scheme:dark) {
  .canvas g, .title g, .axisbar g, .ticktext g, .tickglyph g, .ticklines g, .legendContent g text {
    fill: rgb(94%, 94%, 94%);
  }
  .ticklines g, .tickglyph g, .legendBorder g {
    stroke: rgb(94%, 94%, 94%);
  }
  .legendBorder g {
    fill: rgb(5%, 5%, 5%);
  }
}
svg { font-family: system-ui,-apple-system,"Segoe UI",Roboto,"Helvetica Neue",Arial,"Noto Sans","Liberation Sans",sans-serif,"Apple Color Emoji","Segoe UI Emoji","Segoe UI Symbol","Noto Color Emoji";
}

ticktext { font-family: SFMono-Regular,Menlo,Monaco,Consolas,"Liberation Mono","Courier New",monospace;
}

</style><g class="chart"><g class="chart"><g class="hhistogram"><g stroke-width="0.0066" stroke="rgb(2%, 29%, 48%)" stroke-opacity="1.0" fill="rgb(2%, 73%, 80%)" fill-opacity="0.1"><rect width="0" height="0.0061" x="0.5404" y="0.2542"/><rect width="0" height="0.0049" x="0.5404" y="0.2493"/><rect width="0" height="0.0049" x="0.5404" y="0.2444"/><rect width="0" height="0.0049" x="0.5404" y="0.2395"/><rect width="0" height="0.0049" x="0.5404" y="0.2346"/><rect width="0" height="0.0049" x="0.5404" y="0.2297"/><rect width="0" height="0.0049" x="0.5404" y="0.2248"/><rect width="0" height="0.0049" x="0.5404" y="0.2199"/><rect width="0" height="0.0049" x="0.5404" y="0.2150"/><rect width="0" height="0.0049" x="0.5404" y="0.2101"/><rect width="0" height="0.0049" x="0.5404" y="0.2052"/><rect width="0" height="0.0049" x="0.5404" y="0.2003"/><rect width="0" height="0.0049" x="0.5404" y="0.1953"/><rect width="0" height="0.0049" x="0.5404" y="0.1904"/><rect width="0" height="0.0049" x="0.5404" y="0.1855"/><rect width="0" height="0.0049" x="0.5404" y="0.1806"/><rect width="0" height="0.0049" x="0.5404" y="0.1757"/><rect width="0" height="0.0049" x="0.5404" y="0.1708"/><rect width="0.0053" height="0.0049" x="0.5404" y="0.1659"/><rect width="0.2058" height="0.0049" x="0.5404" y="0.1610"/><rect width="0.0019" height="0.0049" x="0.5404" y="0.1561"/><rect width="0.0006" height="0.0049" x="0.5404" y="0.1512"/><rect width="0.0003" height="0.0049" x="0.5404" y="0.1463"/><rect width="0.0003" height="0.0049" x="0.5404" y="0.1414"/><rect width="0.0006" height="0.0049" x="0.5404" y="0.1365"/><rect width="0.0510" height="0.0049" x="0.5404" y="0.1316"/><rect width="0.0410" height="0.0049" x="0.5404" y="0.1267"/><rect width="0.0009" height="0.0049" x="0.5404" y="0.1218"/><rect width="0.0006" height="0.0049" x="0.5404" y="0.1169"/><rect width="0" height="0.0049" x="0.5404" y="0.1120"/><rect width="0" height="0.0049" x="0.5404" y="0.1071"/><rect width="0.0006" height="0.0049" x="0.5404" y="0.1022"/><rect width="0.0006" height="0.0049" x="0.5404" y="0.0973"/><rect width="0" height="0.0049" x="0.5404" y="0.0924"/><rect width="0" height="0.0049" x="0.5404" y="0.0874"/><rect width="0" height="0.0049" x="0.5404" y="0.0825"/><rect width="0" height="0.0049" x="0.5404" y="0.0776"/><rect width="0" height="0.0049" x="0.5404" y="0.0727"/><rect width="0.0003" height="0.0049" x="0.5404" y="0.0678"/><rect width="0" height="0.0049" x="0.5404" y="0.0629"/><rect width="0" height="0.0049" x="0.5404" y="0.0580"/><rect width="0" height="0.0049" x="0.5404" y="0.0531"/><rect width="0" height="0.0049" x="0.5404" y="0.0482"/><rect width="0.0003" height="0.0049" x="0.5404" y="0.0433"/><rect width="0.0003" height="0.0049" x="0.5404" y="0.0384"/><rect width="0" height="0.0049" x="0.5404" y="0.0335"/><rect width="0" height="0.0049" x="0.5404" y="0.0286"/><rect width="0" height="0.0049" x="0.5404" y="0.0237"/><rect width="0" height="0.0049" x="0.5404" y="0.0188"/><rect width="0" height="0.0049" x="0.5404" y="0.0139"/><rect width="0" height="0.0049" x="0.5404" y="0.0090"/><rect width="0" height="0.0049" x="0.5404" y="0.0041"/><rect width="0" height="0.0049" x="0.5404" y="-0.0008"/><rect width="0" height="0.0049" x="0.5404" y="-0.0057"/><rect width="0" height="0.0049" x="0.5404" y="-0.0106"/><rect width="0" height="0.0049" x="0.5404" y="-0.0155"/><rect width="0" height="0.0049" x="0.5404" y="-0.0205"/><rect width="0" height="0.0049" x="0.5404" y="-0.0254"/><rect width="0.0003" height="0.0049" x="0.5404" y="-0.0303"/><rect width="0" height="0.0049" x="0.5404" y="-0.0352"/><rect width="0" height="0.0049" x="0.5404" y="-0.0401"/><rect width="0" height="0.0049" x="0.5404" y="-0.0450"/><rect width="0" height="0.0049" x="0.5404" y="-0.0499"/><rect width="0" height="0.0049" x="0.5404" y="-0.0548"/><rect width="0" height="0.0049" x="0.5404" y="-0.0597"/><rect width="0" height="0.0049" x="0.5404" y="-0.0646"/><rect width="0" height="0.0049" x="0.5404" y="-0.0695"/><rect width="0.0003" height="0.0049" x="0.5404" y="-0.0744"/><rect width="0" height="0.0049" x="0.5404" y="-0.0793"/><rect width="0" height="0.0049" x="0.5404" y="-0.0842"/><rect width="0.0003" height="0.0049" x="0.5404" y="-0.0891"/><rect width="0" height="0.0049" x="0.5404" y="-0.0940"/><rect width="0" height="0.0049" x="0.5404" y="-0.0989"/><rect width="0" height="0.0049" x="0.5404" y="-0.1038"/><rect width="0" height="0.0049" x="0.5404" y="-0.1087"/><rect width="0" height="0.0049" x="0.5404" y="-0.1136"/><rect width="0" height="0.0049" x="0.5404" y="-0.1185"/><rect width="0" height="0.0049" x="0.5404" y="-0.1235"/><rect width="0.0003" height="0.0049" x="0.5404" y="-0.1284"/><rect width="0" height="0.0049" x="0.5404" y="-0.1333"/><rect width="0.0003" height="0.0049" x="0.5404" y="-0.1382"/><rect width="0" height="0.0049" x="0.5404" y="-0.1431"/><rect width="0" height="0.0049" x="0.5404" y="-0.1480"/><rect width="0" height="0.0049" x="0.5404" y="-0.1529"/><rect width="0" height="0.0049" x="0.5404" y="-0.1578"/><rect width="0" height="0.0049" x="0.5404" y="-0.1627"/><rect width="0" height="0.0049" x="0.5404" y="-0.1676"/><rect width="0.0003" height="0.0049" x="0.5404" y="-0.1725"/><rect width="0" height="0.0049" x="0.5404" y="-0.1774"/><rect width="0" height="0.0049" x="0.5404" y="-0.1823"/><rect width="0" height="0.0049" x="0.5404" y="-0.1872"/><rect width="0" height="0.0049" x="0.5404" y="-0.1921"/><rect width="0" height="0.0049" x="0.5404" y="-0.1970"/><rect width="0" height="0.0049" x="0.5404" y="-0.2019"/><rect width="0" height="0.0049" x="0.5404" y="-0.2068"/><rect width="0" height="0.0049" x="0.5404" y="-0.2117"/><rect width="0" height="0.0049" x="0.5404" y="-0.2166"/><rect width="0" height="0.0049" x="0.5404" y="-0.2215"/><rect width="0" height="0.0049" x="0.5404" y="-0.2264"/><rect width="0" height="0.0049" x="0.5404" y="-0.2314"/><rect width="0" height="0.0049" x="0.5404" y="-0.2363"/><rect width="0" height="0.0049" x="0.5404" y="-0.2412"/><rect width="0" height="0.0049" x="0.5404" y="-0.2461"/><rect width="0" height="0.0049" x="0.5404" y="-0.2510"/><rect width="0" height="0.0049" x="0.5404" y="-0.2559"/><rect width="0" height="0.0049" x="0.5404" y="-0.2608"/><rect width="0" height="0.0049" x="0.5404" y="-0.2657"/><rect width="0" height="0.0049" x="0.5404" y="-0.2706"/><rect width="0" height="0.0049" x="0.5404" y="-0.2755"/><rect width="0" height="0.0049" x="0.5404" y="-0.2804"/><rect width="0" height="0.0049" x="0.5404" y="-0.2853"/><rect width="0" height="0.0049" x="0.5404" y="-0.2902"/><rect width="0" height="0.0049" x="0.5404" y="-0.2951"/><rect width="0" height="0.0049" x="0.5404" y="-0.3000"/><rect width="0.0003" height="0.0049" x="0.5404" y="-0.3049"/><rect width="0" height="0.0049" x="0.5404" y="-0.3098"/><rect width="0" height="0.0049" x="0.5404" y="-0.3147"/><rect width="0" height="0.0049" x="0.5404" y="-0.3196"/><rect width="0" height="0.0049" x="0.5404" y="-0.3245"/><rect width="0" height="0.0049" x="0.5404" y="-0.3294"/><rect width="0" height="0.0049" x="0.5404" y="-0.3343"/><rect width="0" height="0.0049" x="0.5404" y="-0.3393"/><rect width="0" height="0.0049" x="0.5404" y="-0.3442"/><rect width="0" height="0.0049" x="0.5404" y="-0.3491"/><rect width="0" height="0.0049" x="0.5404" y="-0.3540"/><rect width="0" height="0.0049" x="0.5404" y="-0.3589"/><rect width="0" height="0.0061" x="0.5404" y="-0.3650"/></g></g></g><g class="hud"></g><g class="chart"><g class="dot"><g stroke-width="0.0020" stroke="rgb(2%, 29%, 48%)" stroke-opacity="0.3" fill="rgb(2%, 73%, 80%)" fill-opacity="0.3"><circle cx="-0.5773" cy="-0.0732" r="0.0033"/><circle cx="-0.5762" cy="0.1269" r="0.0033"/><circle cx="-0.5752" cy="0.1342" r="0.0033"/><circle cx="-0.5742" cy="0.1353" r="0.0033"/><circle cx="-0.5731" cy="0.1363" r="0.0033"/><circle cx="-0.5721" cy="0.1332" r="0.0033"/><circle cx="-0.5710" cy="0.1363" r="0.0033"/><circle cx="-0.5700" cy="0.1363" r="0.0033"/><circle cx="-0.5689" cy="0.1332" r="0.0033"/><circle cx="-0.5679" cy="0.1332" r="0.0033"/><circle cx="-0.5668" cy="0.1353" r="0.0033"/><circle cx="-0.5658" cy="0.1342" r="0.0033"/><circle cx="-0.5648" cy="0.1363" r="0.0033"/><circle cx="-0.5637" cy="0.1363" r="0.0033"/><circle cx="-0.5627" cy="0.1363" r="0.0033"/><circle cx="-0.5616" cy="0.1363" r="0.0033"/><circle cx="-0.5606" cy="0.1353" r="0.0033"/><circle cx="-0.5595" cy="0.1342" r="0.0033"/><circle cx="-0.5585" cy="0.1374" r="0.0033"/><circle cx="-0.5574" cy="0.1353" r="0.0033"/><circle cx="-0.5564" cy="0.1374" r="0.0033"/><circle cx="-0.5554" cy="0.1353" r="0.0033"/><circle cx="-0.5543" cy="0.1363" r="0.0033"/><circle cx="-0.5533" cy="0.1363" r="0.0033"/><circle cx="-0.5522" cy="0.1363" r="0.0033"/><circle cx="-0.5512" cy="0.1353" r="0.0033"/><circle cx="-0.5501" cy="0.1363" r="0.0033"/><circle cx="-0.5491" cy="0.1363" r="0.0033"/><circle cx="-0.5480" cy="0.1363" r="0.0033"/><circle cx="-0.5470" cy="0.1342" r="0.0033"/><circle cx="-0.5460" cy="0.1363" r="0.0033"/><circle cx="-0.5449" cy="0.1280" r="0.0033"/><circle cx="-0.5439" cy="0.1342" r="0.0033"/><circle cx="-0.5428" cy="0.1363" r="0.0033"/><circle cx="-0.5418" cy="0.1353" r="0.0033"/><circle cx="-0.5407" cy="0.1363" r="0.0033"/><circle cx="-0.5397" cy="0.1373" r="0.0033"/><circle cx="-0.5386" cy="0.1363" r="0.0033"/><circle cx="-0.5376" cy="0.1363" r="0.0033"/><circle cx="-0.5366" cy="0.1353" r="0.0033"/><circle cx="-0.5355" cy="0.1363" r="0.0033"/><circle cx="-0.5345" cy="0.1353" r="0.0033"/><circle cx="-0.5334" cy="0.1353" r="0.0033"/><circle cx="-0.5324" cy="0.1353" r="0.0033"/><circle cx="-0.5313" cy="0.1353" r="0.0033"/><circle cx="-0.5303" cy="0.1353" r="0.0033"/><circle cx="-0.5292" cy="0.1363" r="0.0033"/><circle cx="-0.5282" cy="0.1363" r="0.0033"/><circle cx="-0.5272" cy="0.1363" r="0.0033"/><circle cx="-0.5261" cy="0.1353" r="0.0033"/><circle cx="-0.5251" cy="0.1363" r="0.0033"/><circle cx="-0.5240" cy="0.1363" r="0.0033"/><circle cx="-0.5230" cy="0.1353" r="0.0033"/><circle cx="-0.5219" cy="0.1353" r="0.0033"/><circle cx="-0.5209" cy="0.1363" r="0.0033"/><circle cx="-0.5198" cy="0.1342" r="0.0033"/><circle cx="-0.5188" cy="0.1373" r="0.0033"/><circle cx="-0.5178" cy="0.1342" r="0.0033"/><circle cx="-0.5167" cy="0.1363" r="0.0033"/><circle cx="-0.5157" cy="0.1363" r="0.0033"/><circle cx="-0.5146" cy="0.1363" r="0.0033"/><circle cx="-0.5136" cy="0.1363" r="0.0033"/><circle cx="-0.5125" cy="0.1353" r="0.0033"/><circle cx="-0.5115" cy="0.1342" r="0.0033"/><circle cx="-0.5104" cy="0.1353" r="0.0033"/><circle cx="-0.5094" cy="0.1374" r="0.0033"/><circle cx="-0.5083" cy="0.1353" r="0.0033"/><circle cx="-0.5073" cy="0.1363" r="0.0033"/><circle cx="-0.5063" cy="0.1363" r="0.0033"/><circle cx="-0.5052" cy="0.1373" r="0.0033"/><circle cx="-0.5042" cy="0.1353" r="0.0033"/><circle cx="-0.5031" cy="0.1374" r="0.0033"/><circle cx="-0.5021" cy="0.1353" r="0.0033"/><circle cx="-0.5010" cy="0.1363" r="0.0033"/><circle cx="-0.5000" cy="0.1019" r="0.0033"/><circle cx="-0.4989" cy="0.1342" r="0.0033"/><circle cx="-0.4979" cy="0.1363" r="0.0033"/><circle cx="-0.4969" cy="0.1353" r="0.0033"/><circle cx="-0.4958" cy="0.1342" r="0.0033"/><circle cx="-0.4948" cy="0.1363" r="0.0033"/><circle cx="-0.4937" cy="0.1363" r="0.0033"/><circle cx="-0.4927" cy="0.1353" r="0.0033"/><circle cx="-0.4916" cy="0.1363" r="0.0033"/><circle cx="-0.4906" cy="0.1363" r="0.0033"/><circle cx="-0.4895" cy="0.1363" r="0.0033"/><circle cx="-0.4885" cy="0.1353" r="0.0033"/><circle cx="-0.4875" cy="0.1363" r="0.0033"/><circle cx="-0.4864" cy="0.1363" r="0.0033"/><circle cx="-0.4854" cy="0.1363" r="0.0033"/><circle cx="-0.4843" cy="0.1363" r="0.0033"/><circle cx="-0.4833" cy="0.1363" r="0.0033"/><circle cx="-0.4822" cy="0.1353" r="0.0033"/><circle cx="-0.4812" cy="0.1363" r="0.0033"/><circle cx="-0.4801" cy="0.1363" r="0.0033"/><circle cx="-0.4791" cy="0.1373" r="0.0033"/><circle cx="-0.4781" cy="0.1353" r="0.0033"/><circle cx="-0.4770" cy="0.1373" r="0.0033"/><circle cx="-0.4760" cy="0.1353" r="0.0033"/><circle cx="-0.4749" cy="0.1363" r="0.0033"/><circle cx="-0.4739" cy="0.1353" r="0.0033"/><circle cx="-0.4728" cy="0.1363" r="0.0033"/><circle cx="-0.4718" cy="0.1353" r="0.0033"/><circle cx="-0.4707" cy="0.1373" r="0.0033"/><circle cx="-0.4697" cy="0.1353" r="0.0033"/><circle cx="-0.4687" cy="0.1353" r="0.0033"/><circle cx="-0.4676" cy="0.1353" r="0.0033"/><circle cx="-0.4666" cy="0.1342" r="0.0033"/><circle cx="-0.4655" cy="0.1321" r="0.0033"/><circle cx="-0.4645" cy="0.1353" r="0.0033"/><circle cx="-0.4634" cy="0.1373" r="0.0033"/><circle cx="-0.4624" cy="0.1353" r="0.0033"/><circle cx="-0.4613" cy="0.1353" r="0.0033"/><circle cx="-0.4603" cy="0.1353" r="0.0033"/><circle cx="-0.4593" cy="0.1363" r="0.0033"/><circle cx="-0.4582" cy="0.1363" r="0.0033"/><circle cx="-0.4572" cy="0.1363" r="0.0033"/><circle cx="-0.4561" cy="0.1363" r="0.0033"/><circle cx="-0.4551" cy="0.1373" r="0.0033"/><circle cx="-0.4540" cy="0.1363" r="0.0033"/><circle cx="-0.4530" cy="0.1353" r="0.0033"/><circle cx="-0.4519" cy="0.1342" r="0.0033"/><circle cx="-0.4509" cy="0.1363" r="0.0033"/><circle cx="-0.4499" cy="0.1363" r="0.0033"/><circle cx="-0.4488" cy="0.1373" r="0.0033"/><circle cx="-0.4478" cy="0.1363" r="0.0033"/><circle cx="-0.4467" cy="0.1373" r="0.0033"/><circle cx="-0.4457" cy="0.1342" r="0.0033"/><circle cx="-0.4446" cy="0.1363" r="0.0033"/><circle cx="-0.4436" cy="0.1353" r="0.0033"/><circle cx="-0.4425" cy="0.1353" r="0.0033"/><circle cx="-0.4415" cy="0.1363" r="0.0033"/><circle cx="-0.4405" cy="0.1353" r="0.0033"/><circle cx="-0.4394" cy="0.1363" r="0.0033"/><circle cx="-0.4384" cy="0.1374" r="0.0033"/><circle cx="-0.4373" cy="0.1363" r="0.0033"/><circle cx="-0.4363" cy="0.1363" r="0.0033"/><circle cx="-0.4352" cy="0.1363" r="0.0033"/><circle cx="-0.4342" cy="0.1363" r="0.0033"/><circle cx="-0.4331" cy="0.1353" r="0.0033"/><circle cx="-0.4321" cy="0.1363" r="0.0033"/><circle cx="-0.4310" cy="0.1353" r="0.0033"/><circle cx="-0.4300" cy="0.1353" r="0.0033"/><circle cx="-0.4290" cy="0.1363" r="0.0033"/><circle cx="-0.4279" cy="0.1342" r="0.0033"/><circle cx="-0.4269" cy="0.1353" r="0.0033"/><circle cx="-0.4258" cy="0.1363" r="0.0033"/><circle cx="-0.4248" cy="0.1363" r="0.0033"/><circle cx="-0.4237" cy="0.1353" r="0.0033"/><circle cx="-0.4227" cy="0.1353" r="0.0033"/><circle cx="-0.4216" cy="0.1363" r="0.0033"/><circle cx="-0.4206" cy="0.1030" r="0.0033"/><circle cx="-0.4196" cy="0.1363" r="0.0033"/><circle cx="-0.4185" cy="0.1363" r="0.0033"/><circle cx="-0.4175" cy="0.1363" r="0.0033"/><circle cx="-0.4164" cy="0.1363" r="0.0033"/><circle cx="-0.4154" cy="0.1363" r="0.0033"/><circle cx="-0.4143" cy="0.1342" r="0.0033"/><circle cx="-0.4133" cy="0.1363" r="0.0033"/><circle cx="-0.4122" cy="0.1363" r="0.0033"/><circle cx="-0.4112" cy="0.1374" r="0.0033"/><circle cx="-0.4102" cy="0.1363" r="0.0033"/><circle cx="-0.4091" cy="0.1217" r="0.0033"/><circle cx="-0.4081" cy="0.1342" r="0.0033"/><circle cx="-0.4070" cy="0.1363" r="0.0033"/><circle cx="-0.4060" cy="0.1363" r="0.0033"/><circle cx="-0.4049" cy="0.1363" r="0.0033"/><circle cx="-0.4039" cy="0.1363" r="0.0033"/><circle cx="-0.4028" cy="0.1363" r="0.0033"/><circle cx="-0.4018" cy="0.1342" r="0.0033"/><circle cx="-0.4008" cy="0.1353" r="0.0033"/><circle cx="-0.3997" cy="0.1353" r="0.0033"/><circle cx="-0.3987" cy="0.1374" r="0.0033"/><circle cx="-0.3976" cy="0.1363" r="0.0033"/><circle cx="-0.3966" cy="0.1353" r="0.0033"/><circle cx="-0.3955" cy="0.1374" r="0.0033"/><circle cx="-0.3945" cy="0.1363" r="0.0033"/><circle cx="-0.3934" cy="0.1353" r="0.0033"/><circle cx="-0.3924" cy="0.1342" r="0.0033"/><circle cx="-0.3914" cy="0.1363" r="0.0033"/><circle cx="-0.3903" cy="0.1342" r="0.0033"/><circle cx="-0.3893" cy="0.1353" r="0.0033"/><circle cx="-0.3882" cy="0.1353" r="0.0033"/><circle cx="-0.3872" cy="0.1363" r="0.0033"/><circle cx="-0.3861" cy="0.1217" r="0.0033"/><circle cx="-0.3851" cy="0.1353" r="0.0033"/><circle cx="-0.3840" cy="0.1363" r="0.0033"/><circle cx="-0.3830" cy="0.1374" r="0.0033"/><circle cx="-0.3820" cy="0.1353" r="0.0033"/><circle cx="-0.3809" cy="0.1353" r="0.0033"/><circle cx="-0.3799" cy="0.1342" r="0.0033"/><circle cx="-0.3788" cy="0.1373" r="0.0033"/><circle cx="-0.3778" cy="0.1353" r="0.0033"/><circle cx="-0.3767" cy="0.1373" r="0.0033"/><circle cx="-0.3757" cy="0.1363" r="0.0033"/><circle cx="-0.3746" cy="0.1363" r="0.0033"/><circle cx="-0.3736" cy="0.1363" r="0.0033"/><circle cx="-0.3726" cy="0.1363" r="0.0033"/><circle cx="-0.3715" cy="0.1353" r="0.0033"/><circle cx="-0.3705" cy="0.1353" r="0.0033"/><circle cx="-0.3694" cy="0.1353" r="0.0033"/><circle cx="-0.3684" cy="0.1353" r="0.0033"/><circle cx="-0.3673" cy="0.1363" r="0.0033"/><circle cx="-0.3663" cy="0.1363" r="0.0033"/><circle cx="-0.3652" cy="0.1353" r="0.0033"/><circle cx="-0.3642" cy="0.1342" r="0.0033"/><circle cx="-0.3632" cy="0.1353" r="0.0033"/><circle cx="-0.3621" cy="0.1363" r="0.0033"/><circle cx="-0.3611" cy="0.1363" r="0.0033"/><circle cx="-0.3600" cy="0.1353" r="0.0033"/><circle cx="-0.3590" cy="0.1363" r="0.0033"/><circle cx="-0.3579" cy="0.1342" r="0.0033"/><circle cx="-0.3569" cy="0.1363" r="0.0033"/><circle cx="-0.3558" cy="0.1363" r="0.0033"/><circle cx="-0.3548" cy="0.1373" r="0.0033"/><circle cx="-0.3538" cy="0.1353" r="0.0033"/><circle cx="-0.3527" cy="0.1082" r="0.0033"/><circle cx="-0.3517" cy="0.1321" r="0.0033"/><circle cx="-0.3506" cy="0.1353" r="0.0033"/><circle cx="-0.3496" cy="0.1373" r="0.0033"/><circle cx="-0.3485" cy="0.1342" r="0.0033"/><circle cx="-0.3475" cy="0.1363" r="0.0033"/><circle cx="-0.3464" cy="0.1363" r="0.0033"/><circle cx="-0.3454" cy="0.1363" r="0.0033"/><circle cx="-0.3443" cy="0.1363" r="0.0033"/><circle cx="-0.3433" cy="0.1332" r="0.0033"/><circle cx="-0.3423" cy="0.1332" r="0.0033"/><circle cx="-0.3412" cy="0.1342" r="0.0033"/><circle cx="-0.3402" cy="0.1353" r="0.0033"/><circle cx="-0.3391" cy="0.1363" r="0.0033"/><circle cx="-0.3381" cy="0.1363" r="0.0033"/><circle cx="-0.3370" cy="0.1363" r="0.0033"/><circle cx="-0.3360" cy="0.1353" r="0.0033"/><circle cx="-0.3349" cy="0.1363" r="0.0033"/><circle cx="-0.3339" cy="0.1363" r="0.0033"/><circle cx="-0.3329" cy="0.1353" r="0.0033"/><circle cx="-0.3318" cy="0.1353" r="0.0033"/><circle cx="-0.3308" cy="0.1363" r="0.0033"/><circle cx="-0.3297" cy="0.1363" r="0.0033"/><circle cx="-0.3287" cy="0.1353" r="0.0033"/><circle cx="-0.3276" cy="0.1353" r="0.0033"/><circle cx="-0.3266" cy="0.1353" r="0.0033"/><circle cx="-0.3255" cy="0.1363" r="0.0033"/><circle cx="-0.3245" cy="0.1363" r="0.0033"/><circle cx="-0.3235" cy="0.1363" r="0.0033"/><circle cx="-0.3224" cy="0.1342" r="0.0033"/><circle cx="-0.3214" cy="0.1363" r="0.0033"/><circle cx="-0.3203" cy="0.1353" r="0.0033"/><circle cx="-0.3193" cy="0.1353" r="0.0033"/><circle cx="-0.3182" cy="0.1353" r="0.0033"/><circle cx="-0.3172" cy="0.1384" r="0.0033"/><circle cx="-0.3161" cy="0.1363" r="0.0033"/><circle cx="-0.3151" cy="0.1363" r="0.0033"/><circle cx="-0.3141" cy="0.1363" r="0.0033"/><circle cx="-0.3130" cy="0.1363" r="0.0033"/><circle cx="-0.3120" cy="0.1363" r="0.0033"/><circle cx="-0.3109" cy="0.1342" r="0.0033"/><circle cx="-0.3099" cy="0.1353" r="0.0033"/><circle cx="-0.3088" cy="0.1353" r="0.0033"/><circle cx="-0.3078" cy="0.1374" r="0.0033"/><circle cx="-0.3067" cy="0.1332" r="0.0033"/><circle cx="-0.3057" cy="0.1321" r="0.0033"/><circle cx="-0.3047" cy="0.1321" r="0.0033"/><circle cx="-0.3036" cy="0.1363" r="0.0033"/><circle cx="-0.3026" cy="0.1363" r="0.0033"/><circle cx="-0.3015" cy="0.1353" r="0.0033"/><circle cx="-0.3005" cy="0.1353" r="0.0033"/><circle cx="-0.2994" cy="0.1363" r="0.0033"/><circle cx="-0.2984" cy="0.1363" r="0.0033"/><circle cx="-0.2973" cy="0.1363" r="0.0033"/><circle cx="-0.2963" cy="0.1353" r="0.0033"/><circle cx="-0.2953" cy="0.1363" r="0.0033"/><circle cx="-0.2942" cy="0.1363" r="0.0033"/><circle cx="-0.2932" cy="0.1353" r="0.0033"/><circle cx="-0.2921" cy="0.1363" r="0.0033"/><circle cx="-0.2911" cy="0.1363" r="0.0033"/><circle cx="-0.2900" cy="0.1353" r="0.0033"/><circle cx="-0.2890" cy="0.1363" r="0.0033"/><circle cx="-0.2879" cy="0.1353" r="0.0033"/><circle cx="-0.2869" cy="0.1363" r="0.0033"/><circle cx="-0.2859" cy="0.1363" r="0.0033"/><circle cx="-0.2848" cy="0.1353" r="0.0033"/><circle cx="-0.2838" cy="0.1353" r="0.0033"/><circle cx="-0.2827" cy="0.1353" r="0.0033"/><circle cx="-0.2817" cy="0.1353" r="0.0033"/><circle cx="-0.2806" cy="0.1363" r="0.0033"/><circle cx="-0.2796" cy="0.1363" r="0.0033"/><circle cx="-0.2785" cy="0.1363" r="0.0033"/><circle cx="-0.2775" cy="0.1363" r="0.0033"/><circle cx="-0.2765" cy="0.1373" r="0.0033"/><circle cx="-0.2754" cy="0.1353" r="0.0033"/><circle cx="-0.2744" cy="0.1363" r="0.0033"/><circle cx="-0.2733" cy="0.1082" r="0.0033"/><circle cx="-0.2723" cy="0.1332" r="0.0033"/><circle cx="-0.2712" cy="0.1353" r="0.0033"/><circle cx="-0.2702" cy="0.1342" r="0.0033"/><circle cx="-0.2691" cy="0.1363" r="0.0033"/><circle cx="-0.2681" cy="0.1353" r="0.0033"/><circle cx="-0.2671" cy="0.1363" r="0.0033"/><circle cx="-0.2660" cy="0.1363" r="0.0033"/><circle cx="-0.2650" cy="0.1353" r="0.0033"/><circle cx="-0.2639" cy="0.1342" r="0.0033"/><circle cx="-0.2629" cy="0.1373" r="0.0033"/><circle cx="-0.2618" cy="0.1353" r="0.0033"/><circle cx="-0.2608" cy="0.1301" r="0.0033"/><circle cx="-0.2597" cy="0.1467" r="0.0033"/><circle cx="-0.2587" cy="0.1697" r="0.0033"/><circle cx="-0.2576" cy="0.1697" r="0.0033"/><circle cx="-0.2566" cy="0.1686" r="0.0033"/><circle cx="-0.2556" cy="0.1686" r="0.0033"/><circle cx="-0.2545" cy="0.1686" r="0.0033"/><circle cx="-0.2535" cy="0.1686" r="0.0033"/><circle cx="-0.2524" cy="0.1686" r="0.0033"/><circle cx="-0.2514" cy="0.1676" r="0.0033"/><circle cx="-0.2503" cy="0.1686" r="0.0033"/><circle cx="-0.2493" cy="0.1686" r="0.0033"/><circle cx="-0.2482" cy="0.1686" r="0.0033"/><circle cx="-0.2472" cy="0.1686" r="0.0033"/><circle cx="-0.2462" cy="0.1686" r="0.0033"/><circle cx="-0.2451" cy="0.1686" r="0.0033"/><circle cx="-0.2441" cy="0.1686" r="0.0033"/><circle cx="-0.2430" cy="0.1676" r="0.0033"/><circle cx="-0.2420" cy="0.1686" r="0.0033"/><circle cx="-0.2409" cy="0.1697" r="0.0033"/><circle cx="-0.2399" cy="0.1686" r="0.0033"/><circle cx="-0.2388" cy="0.1697" r="0.0033"/><circle cx="-0.2378" cy="0.1686" r="0.0033"/><circle cx="-0.2368" cy="-0.3066" r="0.0033"/><circle cx="-0.2357" cy="0.1655" r="0.0033"/><circle cx="-0.2347" cy="0.1686" r="0.0033"/><circle cx="-0.2336" cy="0.1707" r="0.0033"/><circle cx="-0.2326" cy="0.1686" r="0.0033"/><circle cx="-0.2315" cy="0.1686" r="0.0033"/><circle cx="-0.2305" cy="0.1676" r="0.0033"/><circle cx="-0.2294" cy="0.1686" r="0.0033"/><circle cx="-0.2284" cy="0.1697" r="0.0033"/><circle cx="-0.2274" cy="0.1561" r="0.0033"/><circle cx="-0.2263" cy="0.1686" r="0.0033"/><circle cx="-0.2253" cy="0.1697" r="0.0033"/><circle cx="-0.2242" cy="0.1697" r="0.0033"/><circle cx="-0.2232" cy="0.1697" r="0.0033"/><circle cx="-0.2221" cy="0.1686" r="0.0033"/><circle cx="-0.2211" cy="0.1686" r="0.0033"/><circle cx="-0.2200" cy="0.1676" r="0.0033"/><circle cx="-0.2190" cy="0.1686" r="0.0033"/><circle cx="-0.2180" cy="0.1686" r="0.0033"/><circle cx="-0.2169" cy="0.1686" r="0.0033"/><circle cx="-0.2159" cy="0.1697" r="0.0033"/><circle cx="-0.2148" cy="0.1686" r="0.0033"/><circle cx="-0.2138" cy="-0.1378" r="0.0033"/><circle cx="-0.2127" cy="0.1624" r="0.0033"/><circle cx="-0.2117" cy="0.1676" r="0.0033"/><circle cx="-0.2106" cy="0.1697" r="0.0033"/><circle cx="-0.2096" cy="-0.1274" r="0.0033"/><circle cx="-0.2086" cy="0.1665" r="0.0033"/><circle cx="-0.2075" cy="0.1655" r="0.0033"/><circle cx="-0.2065" cy="0.1676" r="0.0033"/><circle cx="-0.2054" cy="0.1686" r="0.0033"/><circle cx="-0.2044" cy="0.1686" r="0.0033"/><circle cx="-0.2033" cy="0.1697" r="0.0033"/><circle cx="-0.2023" cy="0.1697" r="0.0033"/><circle cx="-0.2012" cy="0.1697" r="0.0033"/><circle cx="-0.2002" cy="0.1686" r="0.0033"/><circle cx="-0.1992" cy="0.1676" r="0.0033"/><circle cx="-0.1981" cy="0.1686" r="0.0033"/><circle cx="-0.1971" cy="0.1676" r="0.0033"/><circle cx="-0.1960" cy="0.1697" r="0.0033"/><circle cx="-0.1950" cy="0.1686" r="0.0033"/><circle cx="-0.1939" cy="0.0738" r="0.0033"/><circle cx="-0.1929" cy="0.1645" r="0.0033"/><circle cx="-0.1918" cy="0.1686" r="0.0033"/><circle cx="-0.1908" cy="0.1686" r="0.0033"/><circle cx="-0.1898" cy="0.1686" r="0.0033"/><circle cx="-0.1887" cy="0.1686" r="0.0033"/><circle cx="-0.1877" cy="0.1686" r="0.0033"/><circle cx="-0.1866" cy="0.1686" r="0.0033"/><circle cx="-0.1856" cy="0.1686" r="0.0033"/><circle cx="-0.1845" cy="0.1686" r="0.0033"/><circle cx="-0.1835" cy="0.1686" r="0.0033"/><circle cx="-0.1824" cy="0.1686" r="0.0033"/><circle cx="-0.1814" cy="0.1686" r="0.0033"/><circle cx="-0.1804" cy="0.1686" r="0.0033"/><circle cx="-0.1793" cy="0.1686" r="0.0033"/><circle cx="-0.1783" cy="0.1697" r="0.0033"/><circle cx="-0.1772" cy="0.1676" r="0.0033"/><circle cx="-0.1762" cy="0.1686" r="0.0033"/><circle cx="-0.1751" cy="-0.0857" r="0.0033"/><circle cx="-0.1741" cy="0.1592" r="0.0033"/><circle cx="-0.1730" cy="0.1676" r="0.0033"/><circle cx="-0.1720" cy="0.1665" r="0.0033"/><circle cx="-0.1709" cy="0.1676" r="0.0033"/><circle cx="-0.1699" cy="0.1676" r="0.0033"/><circle cx="-0.1689" cy="0.1686" r="0.0033"/><circle cx="-0.1678" cy="0.1686" r="0.0033"/><circle cx="-0.1668" cy="0.1686" r="0.0033"/><circle cx="-0.1657" cy="0.1686" r="0.0033"/><circle cx="-0.1647" cy="0.1686" r="0.0033"/><circle cx="-0.1636" cy="0.1676" r="0.0033"/><circle cx="-0.1626" cy="0.1686" r="0.0033"/><circle cx="-0.1615" cy="0.1676" r="0.0033"/><circle cx="-0.1605" cy="0.1686" r="0.0033"/><circle cx="-0.1595" cy="0.1686" r="0.0033"/><circle cx="-0.1584" cy="0.1686" r="0.0033"/><circle cx="-0.1574" cy="0.1676" r="0.0033"/><circle cx="-0.1563" cy="0.1676" r="0.0033"/><circle cx="-0.1553" cy="0.1686" r="0.0033"/><circle cx="-0.1542" cy="0.1686" r="0.0033"/><circle cx="-0.1532" cy="0.1686" r="0.0033"/><circle cx="-0.1521" cy="0.1697" r="0.0033"/><circle cx="-0.1511" cy="0.1697" r="0.0033"/><circle cx="-0.1501" cy="0.1686" r="0.0033"/><circle cx="-0.1490" cy="0.1686" r="0.0033"/><circle cx="-0.1480" cy="0.1655" r="0.0033"/><circle cx="-0.1469" cy="0.1697" r="0.0033"/><circle cx="-0.1459" cy="0.1697" r="0.0033"/><circle cx="-0.1448" cy="0.1686" r="0.0033"/><circle cx="-0.1438" cy="0.1686" r="0.0033"/><circle cx="-0.1427" cy="0.1686" r="0.0033"/><circle cx="-0.1417" cy="0.1686" r="0.0033"/><circle cx="-0.1407" cy="0.1697" r="0.0033"/><circle cx="-0.1396" cy="0.1686" r="0.0033"/><circle cx="-0.1386" cy="0.1686" r="0.0033"/><circle cx="-0.1375" cy="0.1676" r="0.0033"/><circle cx="-0.1365" cy="0.1686" r="0.0033"/><circle cx="-0.1354" cy="0.1686" r="0.0033"/><circle cx="-0.1344" cy="0.1697" r="0.0033"/><circle cx="-0.1333" cy="0.1686" r="0.0033"/><circle cx="-0.1323" cy="0.1697" r="0.0033"/><circle cx="-0.1313" cy="0.1697" r="0.0033"/><circle cx="-0.1302" cy="0.1686" r="0.0033"/><circle cx="-0.1292" cy="0.1686" r="0.0033"/><circle cx="-0.1281" cy="0.1686" r="0.0033"/><circle cx="-0.1271" cy="0.1686" r="0.0033"/><circle cx="-0.1260" cy="0.1686" r="0.0033"/><circle cx="-0.1250" cy="0.1686" r="0.0033"/><circle cx="-0.1239" cy="0.1676" r="0.0033"/><circle cx="-0.1229" cy="0.1676" r="0.0033"/><circle cx="-0.1219" cy="0.1697" r="0.0033"/><circle cx="-0.1208" cy="0.1676" r="0.0033"/><circle cx="-0.1198" cy="0.1665" r="0.0033"/><circle cx="-0.1187" cy="0.1686" r="0.0033"/><circle cx="-0.1177" cy="0.1686" r="0.0033"/><circle cx="-0.1166" cy="0.1686" r="0.0033"/><circle cx="-0.1156" cy="0.1697" r="0.0033"/><circle cx="-0.1145" cy="0.1425" r="0.0033"/><circle cx="-0.1135" cy="0.1655" r="0.0033"/><circle cx="-0.1125" cy="0.1686" r="0.0033"/><circle cx="-0.1114" cy="0.1686" r="0.0033"/><circle cx="-0.1104" cy="0.1686" r="0.0033"/><circle cx="-0.1093" cy="0.1686" r="0.0033"/><circle cx="-0.1083" cy="0.1686" r="0.0033"/><circle cx="-0.1072" cy="0.1686" r="0.0033"/><circle cx="-0.1062" cy="0.1676" r="0.0033"/><circle cx="-0.1051" cy="0.1676" r="0.0033"/><circle cx="-0.1041" cy="0.1686" r="0.0033"/><circle cx="-0.1031" cy="0.1676" r="0.0033"/><circle cx="-0.1020" cy="0.1697" r="0.0033"/><circle cx="-0.1010" cy="0.1707" r="0.0033"/><circle cx="-0.0999" cy="0.1697" r="0.0033"/><circle cx="-0.0989" cy="0.1697" r="0.0033"/><circle cx="-0.0978" cy="0.1686" r="0.0033"/><circle cx="-0.0968" cy="0.1686" r="0.0033"/><circle cx="-0.0957" cy="0.1686" r="0.0033"/><circle cx="-0.0947" cy="0.1686" r="0.0033"/><circle cx="-0.0937" cy="0.1676" r="0.0033"/><circle cx="-0.0926" cy="0.1686" r="0.0033"/><circle cx="-0.0916" cy="0.1686" r="0.0033"/><circle cx="-0.0905" cy="0.1697" r="0.0033"/><circle cx="-0.0895" cy="0.1686" r="0.0033"/><circle cx="-0.0884" cy="0.1686" r="0.0033"/><circle cx="-0.0874" cy="0.1697" r="0.0033"/><circle cx="-0.0863" cy="0.1686" r="0.0033"/><circle cx="-0.0853" cy="0.1697" r="0.0033"/><circle cx="-0.0842" cy="0.1665" r="0.0033"/><circle cx="-0.0832" cy="0.1665" r="0.0033"/><circle cx="-0.0822" cy="0.1665" r="0.0033"/><circle cx="-0.0811" cy="0.1676" r="0.0033"/><circle cx="-0.0801" cy="0.1645" r="0.0033"/><circle cx="-0.0790" cy="0.1665" r="0.0033"/><circle cx="-0.0780" cy="0.1665" r="0.0033"/><circle cx="-0.0769" cy="0.1686" r="0.0033"/><circle cx="-0.0759" cy="0.1676" r="0.0033"/><circle cx="-0.0748" cy="0.1686" r="0.0033"/><circle cx="-0.0738" cy="0.1686" r="0.0033"/><circle cx="-0.0728" cy="0.1707" r="0.0033"/><circle cx="-0.0717" cy="0.1686" r="0.0033"/><circle cx="-0.0707" cy="0.1676" r="0.0033"/><circle cx="-0.0696" cy="0.1697" r="0.0033"/><circle cx="-0.0686" cy="0.1676" r="0.0033"/><circle cx="-0.0675" cy="0.1697" r="0.0033"/><circle cx="-0.0665" cy="0.1686" r="0.0033"/><circle cx="-0.0654" cy="0.1697" r="0.0033"/><circle cx="-0.0644" cy="0.1676" r="0.0033"/><circle cx="-0.0634" cy="0.1676" r="0.0033"/><circle cx="-0.0623" cy="0.1686" r="0.0033"/><circle cx="-0.0613" cy="0.1676" r="0.0033"/><circle cx="-0.0602" cy="0.1697" r="0.0033"/><circle cx="-0.0592" cy="0.1676" r="0.0033"/><circle cx="-0.0581" cy="0.1686" r="0.0033"/><circle cx="-0.0571" cy="0.1697" r="0.0033"/><circle cx="-0.0560" cy="0.1686" r="0.0033"/><circle cx="-0.0550" cy="0.1697" r="0.0033"/><circle cx="-0.0540" cy="0.1707" r="0.0033"/><circle cx="-0.0529" cy="0.1676" r="0.0033"/><circle cx="-0.0519" cy="0.1676" r="0.0033"/><circle cx="-0.0508" cy="0.1686" r="0.0033"/><circle cx="-0.0498" cy="0.1697" r="0.0033"/><circle cx="-0.0487" cy="0.1686" r="0.0033"/><circle cx="-0.0477" cy="0.1676" r="0.0033"/><circle cx="-0.0466" cy="0.1676" r="0.0033"/><circle cx="-0.0456" cy="0.1686" r="0.0033"/><circle cx="-0.0446" cy="0.1686" r="0.0033"/><circle cx="-0.0435" cy="0.1686" r="0.0033"/><circle cx="-0.0425" cy="0.1686" r="0.0033"/><circle cx="-0.0414" cy="0.1676" r="0.0033"/><circle cx="-0.0404" cy="0.1686" r="0.0033"/><circle cx="-0.0393" cy="0.1697" r="0.0033"/><circle cx="-0.0383" cy="0.1686" r="0.0033"/><circle cx="-0.0372" cy="0.1665" r="0.0033"/><circle cx="-0.0362" cy="0.1665" r="0.0033"/><circle cx="-0.0352" cy="0.1436" r="0.0033"/><circle cx="-0.0341" cy="0.1665" r="0.0033"/><circle cx="-0.0331" cy="0.1697" r="0.0033"/><circle cx="-0.0320" cy="0.1697" r="0.0033"/><circle cx="-0.0310" cy="0.1697" r="0.0033"/><circle cx="-0.0299" cy="0.1697" r="0.0033"/><circle cx="-0.0289" cy="0.1707" r="0.0033"/><circle cx="-0.0278" cy="0.1686" r="0.0033"/><circle cx="-0.0268" cy="0.1686" r="0.0033"/><circle cx="-0.0258" cy="0.1676" r="0.0033"/><circle cx="-0.0247" cy="0.1686" r="0.0033"/><circle cx="-0.0237" cy="0.1686" r="0.0033"/><circle cx="-0.0226" cy="0.1686" r="0.0033"/><circle cx="-0.0216" cy="0.1707" r="0.0033"/><circle cx="-0.0205" cy="0.1686" r="0.0033"/><circle cx="-0.0195" cy="0.1676" r="0.0033"/><circle cx="-0.0184" cy="0.1686" r="0.0033"/><circle cx="-0.0174" cy="0.1686" r="0.0033"/><circle cx="-0.0164" cy="0.1676" r="0.0033"/><circle cx="-0.0153" cy="0.1686" r="0.0033"/><circle cx="-0.0143" cy="0.1686" r="0.0033"/><circle cx="-0.0132" cy="0.1686" r="0.0033"/><circle cx="-0.0122" cy="0.1686" r="0.0033"/><circle cx="-0.0111" cy="0.1665" r="0.0033"/><circle cx="-0.0101" cy="0.1676" r="0.0033"/><circle cx="-0.0090" cy="0.1686" r="0.0033"/><circle cx="-0.0080" cy="0.1676" r="0.0033"/><circle cx="-0.0069" cy="0.1686" r="0.0033"/><circle cx="-0.0059" cy="0.1686" r="0.0033"/><circle cx="-0.0049" cy="0.1686" r="0.0033"/><circle cx="-0.0038" cy="0.1686" r="0.0033"/><circle cx="-0.0028" cy="0.1686" r="0.0033"/><circle cx="-0.0017" cy="0.1686" r="0.0033"/><circle cx="-0.0007" cy="0.1665" r="0.0033"/><circle cx="0.0004" cy="0.1686" r="0.0033"/><circle cx="0.0014" cy="0.1686" r="0.0033"/><circle cx="0.0025" cy="0.1686" r="0.0033"/><circle cx="0.0035" cy="0.1686" r="0.0033"/><circle cx="0.0045" cy="0.1697" r="0.0033"/><circle cx="0.0056" cy="0.1697" r="0.0033"/><circle cx="0.0066" cy="0.1676" r="0.0033"/><circle cx="0.0077" cy="0.1697" r="0.0033"/><circle cx="0.0087" cy="0.1686" r="0.0033"/><circle cx="0.0098" cy="0.1697" r="0.0033"/><circle cx="0.0108" cy="0.1707" r="0.0033"/><circle cx="0.0119" cy="0.1686" r="0.0033"/><circle cx="0.0129" cy="0.1686" r="0.0033"/><circle cx="0.0139" cy="0.1686" r="0.0033"/><circle cx="0.0150" cy="0.1686" r="0.0033"/><circle cx="0.0160" cy="0.1686" r="0.0033"/><circle cx="0.0171" cy="0.1697" r="0.0033"/><circle cx="0.0181" cy="0.1676" r="0.0033"/><circle cx="0.0192" cy="0.1686" r="0.0033"/><circle cx="0.0202" cy="0.1686" r="0.0033"/><circle cx="0.0213" cy="0.1697" r="0.0033"/><circle cx="0.0223" cy="0.1697" r="0.0033"/><circle cx="0.0233" cy="0.1686" r="0.0033"/><circle cx="0.0244" cy="0.1686" r="0.0033"/><circle cx="0.0254" cy="0.1676" r="0.0033"/><circle cx="0.0265" cy="0.1686" r="0.0033"/><circle cx="0.0275" cy="0.1686" r="0.0033"/><circle cx="0.0286" cy="0.1697" r="0.0033"/><circle cx="0.0296" cy="0.1697" r="0.0033"/><circle cx="0.0307" cy="0.1686" r="0.0033"/><circle cx="0.0317" cy="0.1686" r="0.0033"/><circle cx="0.0327" cy="0.0477" r="0.0033"/><circle cx="0.0338" cy="0.1655" r="0.0033"/><circle cx="0.0348" cy="0.0415" r="0.0033"/><circle cx="0.0359" cy="0.1645" r="0.0033"/><circle cx="0.0369" cy="0.1676" r="0.0033"/><circle cx="0.0380" cy="0.1697" r="0.0033"/><circle cx="0.0390" cy="0.1707" r="0.0033"/><circle cx="0.0401" cy="0.1697" r="0.0033"/><circle cx="0.0411" cy="0.1697" r="0.0033"/><circle cx="0.0421" cy="0.1686" r="0.0033"/><circle cx="0.0432" cy="0.1697" r="0.0033"/><circle cx="0.0442" cy="0.1697" r="0.0033"/><circle cx="0.0453" cy="0.1676" r="0.0033"/><circle cx="0.0463" cy="0.1676" r="0.0033"/><circle cx="0.0474" cy="0.1697" r="0.0033"/><circle cx="0.0484" cy="0.1686" r="0.0033"/><circle cx="0.0495" cy="0.1676" r="0.0033"/><circle cx="0.0505" cy="0.1686" r="0.0033"/><circle cx="0.0515" cy="0.1686" r="0.0033"/><circle cx="0.0526" cy="0.1697" r="0.0033"/><circle cx="0.0536" cy="0.1697" r="0.0033"/><circle cx="0.0547" cy="0.1697" r="0.0033"/><circle cx="0.0557" cy="0.1540" r="0.0033"/><circle cx="0.0568" cy="0.1613" r="0.0033"/><circle cx="0.0578" cy="0.1697" r="0.0033"/><circle cx="0.0589" cy="0.1686" r="0.0033"/><circle cx="0.0599" cy="0.1697" r="0.0033"/><circle cx="0.0609" cy="0.1686" r="0.0033"/><circle cx="0.0620" cy="0.1697" r="0.0033"/><circle cx="0.0630" cy="0.1697" r="0.0033"/><circle cx="0.0641" cy="0.1686" r="0.0033"/><circle cx="0.0651" cy="0.1686" r="0.0033"/><circle cx="0.0662" cy="0.1697" r="0.0033"/><circle cx="0.0672" cy="0.1676" r="0.0033"/><circle cx="0.0683" cy="0.1697" r="0.0033"/><circle cx="0.0693" cy="0.1686" r="0.0033"/><circle cx="0.0703" cy="0.1676" r="0.0033"/><circle cx="0.0714" cy="0.1697" r="0.0033"/><circle cx="0.0724" cy="0.1686" r="0.0033"/><circle cx="0.0735" cy="0.1686" r="0.0033"/><circle cx="0.0745" cy="0.1676" r="0.0033"/><circle cx="0.0756" cy="0.1686" r="0.0033"/><circle cx="0.0766" cy="0.1697" r="0.0033"/><circle cx="0.0777" cy="0.1697" r="0.0033"/><circle cx="0.0787" cy="0.1707" r="0.0033"/><circle cx="0.0798" cy="0.1676" r="0.0033"/><circle cx="0.0808" cy="0.1686" r="0.0033"/><circle cx="0.0818" cy="0.1686" r="0.0033"/><circle cx="0.0829" cy="0.1676" r="0.0033"/><circle cx="0.0839" cy="0.1676" r="0.0033"/><circle cx="0.0850" cy="0.1686" r="0.0033"/><circle cx="0.0860" cy="0.1697" r="0.0033"/><circle cx="0.0871" cy="0.1697" r="0.0033"/><circle cx="0.0881" cy="0.1697" r="0.0033"/><circle cx="0.0892" cy="0.1686" r="0.0033"/><circle cx="0.0902" cy="0.1686" r="0.0033"/><circle cx="0.0912" cy="0.1686" r="0.0033"/><circle cx="0.0923" cy="0.1686" r="0.0033"/><circle cx="0.0933" cy="0.1676" r="0.0033"/><circle cx="0.0944" cy="0.1676" r="0.0033"/><circle cx="0.0954" cy="0.1686" r="0.0033"/><circle cx="0.0965" cy="0.1707" r="0.0033"/><circle cx="0.0975" cy="0.1697" r="0.0033"/><circle cx="0.0986" cy="0.1686" r="0.0033"/><circle cx="0.0996" cy="0.1686" r="0.0033"/><circle cx="0.1006" cy="0.1676" r="0.0033"/><circle cx="0.1017" cy="0.1686" r="0.0033"/><circle cx="0.1027" cy="0.1686" r="0.0033"/><circle cx="0.1038" cy="0.1707" r="0.0033"/><circle cx="0.1048" cy="0.1697" r="0.0033"/><circle cx="0.1059" cy="0.1697" r="0.0033"/><circle cx="0.1069" cy="0.1686" r="0.0033"/><circle cx="0.1080" cy="0.1697" r="0.0033"/><circle cx="0.1090" cy="0.1686" r="0.0033"/><circle cx="0.1100" cy="0.1686" r="0.0033"/><circle cx="0.1111" cy="0.1676" r="0.0033"/><circle cx="0.1121" cy="0.1686" r="0.0033"/><circle cx="0.1132" cy="0.1686" r="0.0033"/><circle cx="0.1142" cy="0.1697" r="0.0033"/><circle cx="0.1153" cy="0.1707" r="0.0033"/><circle cx="0.1163" cy="0.1697" r="0.0033"/><circle cx="0.1174" cy="0.1686" r="0.0033"/><circle cx="0.1184" cy="0.1676" r="0.0033"/><circle cx="0.1194" cy="0.1676" r="0.0033"/><circle cx="0.1205" cy="0.1686" r="0.0033"/><circle cx="0.1215" cy="0.1686" r="0.0033"/><circle cx="0.1226" cy="0.1686" r="0.0033"/><circle cx="0.1236" cy="0.1686" r="0.0033"/><circle cx="0.1247" cy="0.1697" r="0.0033"/><circle cx="0.1257" cy="0.1697" r="0.0033"/><circle cx="0.1268" cy="0.1686" r="0.0033"/><circle cx="0.1278" cy="0.1697" r="0.0033"/><circle cx="0.1288" cy="0.1686" r="0.0033"/><circle cx="0.1299" cy="0.1697" r="0.0033"/><circle cx="0.1309" cy="0.1686" r="0.0033"/><circle cx="0.1320" cy="0.1697" r="0.0033"/><circle cx="0.1330" cy="0.1697" r="0.0033"/><circle cx="0.1341" cy="0.1686" r="0.0033"/><circle cx="0.1351" cy="0.1686" r="0.0033"/><circle cx="0.1362" cy="0.1697" r="0.0033"/><circle cx="0.1372" cy="0.1686" r="0.0033"/><circle cx="0.1382" cy="0.1686" r="0.0033"/><circle cx="0.1393" cy="0.1686" r="0.0033"/><circle cx="0.1403" cy="0.1686" r="0.0033"/><circle cx="0.1414" cy="0.1686" r="0.0033"/><circle cx="0.1424" cy="0.1686" r="0.0033"/><circle cx="0.1435" cy="0.1686" r="0.0033"/><circle cx="0.1445" cy="0.1686" r="0.0033"/><circle cx="0.1456" cy="0.1686" r="0.0033"/><circle cx="0.1466" cy="0.1686" r="0.0033"/><circle cx="0.1476" cy="0.1697" r="0.0033"/><circle cx="0.1487" cy="0.1697" r="0.0033"/><circle cx="0.1497" cy="0.1686" r="0.0033"/><circle cx="0.1508" cy="0.1676" r="0.0033"/><circle cx="0.1518" cy="0.1686" r="0.0033"/><circle cx="0.1529" cy="0.1686" r="0.0033"/><circle cx="0.1539" cy="0.1686" r="0.0033"/><circle cx="0.1550" cy="0.1697" r="0.0033"/><circle cx="0.1560" cy="0.1686" r="0.0033"/><circle cx="0.1570" cy="0.1686" r="0.0033"/><circle cx="0.1581" cy="0.1697" r="0.0033"/><circle cx="0.1591" cy="0.1697" r="0.0033"/><circle cx="0.1602" cy="0.1686" r="0.0033"/><circle cx="0.1612" cy="0.1697" r="0.0033"/><circle cx="0.1623" cy="0.1686" r="0.0033"/><circle cx="0.1633" cy="0.1686" r="0.0033"/><circle cx="0.1644" cy="0.1697" r="0.0033"/><circle cx="0.1654" cy="0.1676" r="0.0033"/><circle cx="0.1665" cy="0.1686" r="0.0033"/><circle cx="0.1675" cy="0.1697" r="0.0033"/><circle cx="0.1685" cy="0.1697" r="0.0033"/><circle cx="0.1696" cy="0.1686" r="0.0033"/><circle cx="0.1706" cy="0.1697" r="0.0033"/><circle cx="0.1717" cy="0.1686" r="0.0033"/><circle cx="0.1727" cy="0.1686" r="0.0033"/><circle cx="0.1738" cy="0.1697" r="0.0033"/><circle cx="0.1748" cy="0.1697" r="0.0033"/><circle cx="0.1759" cy="0.1697" r="0.0033"/><circle cx="0.1769" cy="0.1707" r="0.0033"/><circle cx="0.1779" cy="0.1697" r="0.0033"/><circle cx="0.1790" cy="0.1697" r="0.0033"/><circle cx="0.1800" cy="0.1676" r="0.0033"/><circle cx="0.1811" cy="0.1686" r="0.0033"/><circle cx="0.1821" cy="0.1676" r="0.0033"/><circle cx="0.1832" cy="0.1686" r="0.0033"/><circle cx="0.1842" cy="0.1697" r="0.0033"/><circle cx="0.1853" cy="0.1697" r="0.0033"/><circle cx="0.1863" cy="0.1676" r="0.0033"/><circle cx="0.1873" cy="0.1676" r="0.0033"/><circle cx="0.1884" cy="0.1676" r="0.0033"/><circle cx="0.1894" cy="0.1697" r="0.0033"/><circle cx="0.1905" cy="0.1697" r="0.0033"/><circle cx="0.1915" cy="0.1697" r="0.0033"/><circle cx="0.1926" cy="0.1686" r="0.0033"/><circle cx="0.1936" cy="0.1686" r="0.0033"/><circle cx="0.1947" cy="0.1676" r="0.0033"/><circle cx="0.1957" cy="0.1686" r="0.0033"/><circle cx="0.1967" cy="0.1665" r="0.0033"/><circle cx="0.1978" cy="0.1686" r="0.0033"/><circle cx="0.1988" cy="0.1665" r="0.0033"/><circle cx="0.1999" cy="0.1686" r="0.0033"/><circle cx="0.2009" cy="0.1686" r="0.0033"/><circle cx="0.2020" cy="0.1676" r="0.0033"/><circle cx="0.2030" cy="0.1686" r="0.0033"/><circle cx="0.2041" cy="0.1686" r="0.0033"/><circle cx="0.2051" cy="0.1686" r="0.0033"/><circle cx="0.2061" cy="0.1686" r="0.0033"/><circle cx="0.2072" cy="0.1686" r="0.0033"/><circle cx="0.2082" cy="0.1686" r="0.0033"/><circle cx="0.2093" cy="0.1686" r="0.0033"/><circle cx="0.2103" cy="0.1686" r="0.0033"/><circle cx="0.2114" cy="0.1686" r="0.0033"/><circle cx="0.2124" cy="0.1686" r="0.0033"/><circle cx="0.2135" cy="0.1676" r="0.0033"/><circle cx="0.2145" cy="0.1676" r="0.0033"/><circle cx="0.2155" cy="0.1697" r="0.0033"/><circle cx="0.2166" cy="0.1697" r="0.0033"/><circle cx="0.2176" cy="0.1697" r="0.0033"/><circle cx="0.2187" cy="0.1697" r="0.0033"/><circle cx="0.2197" cy="0.1686" r="0.0033"/><circle cx="0.2208" cy="0.1686" r="0.0033"/><circle cx="0.2218" cy="0.1686" r="0.0033"/><circle cx="0.2229" cy="0.1686" r="0.0033"/><circle cx="0.2239" cy="0.1697" r="0.0033"/><circle cx="0.2249" cy="0.1686" r="0.0033"/><circle cx="0.2260" cy="0.1697" r="0.0033"/><circle cx="0.2270" cy="0.1697" r="0.0033"/><circle cx="0.2281" cy="0.1697" r="0.0033"/><circle cx="0.2291" cy="0.1686" r="0.0033"/><circle cx="0.2302" cy="0.1686" r="0.0033"/><circle cx="0.2312" cy="0.1665" r="0.0033"/><circle cx="0.2323" cy="0.1686" r="0.0033"/><circle cx="0.2333" cy="0.1686" r="0.0033"/><circle cx="0.2343" cy="0.1676" r="0.0033"/><circle cx="0.2354" cy="0.1697" r="0.0033"/><circle cx="0.2364" cy="0.1686" r="0.0033"/><circle cx="0.2375" cy="0.1686" r="0.0033"/><circle cx="0.2385" cy="0.1676" r="0.0033"/><circle cx="0.2396" cy="0.1686" r="0.0033"/><circle cx="0.2406" cy="0.1686" r="0.0033"/><circle cx="0.2417" cy="0.1697" r="0.0033"/><circle cx="0.2427" cy="0.1686" r="0.0033"/><circle cx="0.2437" cy="0.1686" r="0.0033"/><circle cx="0.2448" cy="0.1676" r="0.0033"/><circle cx="0.2458" cy="0.1697" r="0.0033"/><circle cx="0.2469" cy="0.1686" r="0.0033"/><circle cx="0.2479" cy="0.1697" r="0.0033"/><circle cx="0.2490" cy="0.1686" r="0.0033"/><circle cx="0.2500" cy="0.1686" r="0.0033"/><circle cx="0.2511" cy="0.1686" r="0.0033"/><circle cx="0.2521" cy="0.1697" r="0.0033"/><circle cx="0.2532" cy="0.1697" r="0.0033"/><circle cx="0.2542" cy="0.1686" r="0.0033"/><circle cx="0.2552" cy="0.1686" r="0.0033"/><circle cx="0.2563" cy="0.1686" r="0.0033"/><circle cx="0.2573" cy="0.1686" r="0.0033"/><circle cx="0.2584" cy="0.1686" r="0.0033"/><circle cx="0.2594" cy="0.1686" r="0.0033"/><circle cx="0.2605" cy="0.1697" r="0.0033"/><circle cx="0.2615" cy="0.1686" r="0.0033"/><circle cx="0.2626" cy="0.1697" r="0.0033"/><circle cx="0.2636" cy="0.1686" r="0.0033"/><circle cx="0.2646" cy="0.1686" r="0.0033"/><circle cx="0.2657" cy="0.1686" r="0.0033"/><circle cx="0.2667" cy="0.1686" r="0.0033"/><circle cx="0.2678" cy="0.1707" r="0.0033"/><circle cx="0.2688" cy="0.1697" r="0.0033"/><circle cx="0.2699" cy="0.1686" r="0.0033"/><circle cx="0.2709" cy="0.1686" r="0.0033"/><circle cx="0.2720" cy="0.1686" r="0.0033"/><circle cx="0.2730" cy="0.1686" r="0.0033"/><circle cx="0.2740" cy="0.1686" r="0.0033"/><circle cx="0.2751" cy="0.1686" r="0.0033"/><circle cx="0.2761" cy="0.1686" r="0.0033"/><circle cx="0.2772" cy="0.1686" r="0.0033"/><circle cx="0.2782" cy="0.1686" r="0.0033"/><circle cx="0.2793" cy="0.1686" r="0.0033"/><circle cx="0.2803" cy="0.1686" r="0.0033"/><circle cx="0.2814" cy="0.1697" r="0.0033"/><circle cx="0.2824" cy="0.1676" r="0.0033"/><circle cx="0.2834" cy="0.1686" r="0.0033"/><circle cx="0.2845" cy="0.1697" r="0.0033"/><circle cx="0.2855" cy="0.1686" r="0.0033"/><circle cx="0.2866" cy="0.1697" r="0.0033"/><circle cx="0.2876" cy="0.1697" r="0.0033"/><circle cx="0.2887" cy="0.1676" r="0.0033"/><circle cx="0.2897" cy="0.1686" r="0.0033"/><circle cx="0.2908" cy="0.1697" r="0.0033"/><circle cx="0.2918" cy="0.1697" r="0.0033"/><circle cx="0.2928" cy="0.1686" r="0.0033"/><circle cx="0.2939" cy="0.1676" r="0.0033"/><circle cx="0.2949" cy="0.1686" r="0.0033"/><circle cx="0.2960" cy="0.1686" r="0.0033"/><circle cx="0.2970" cy="0.1686" r="0.0033"/><circle cx="0.2981" cy="0.1686" r="0.0033"/><circle cx="0.2991" cy="0.1686" r="0.0033"/><circle cx="0.3002" cy="0.1676" r="0.0033"/><circle cx="0.3012" cy="0.1686" r="0.0033"/><circle cx="0.3022" cy="0.1686" r="0.0033"/><circle cx="0.3033" cy="0.1686" r="0.0033"/><circle cx="0.3043" cy="0.1697" r="0.0033"/><circle cx="0.3054" cy="0.1686" r="0.0033"/><circle cx="0.3064" cy="0.1686" r="0.0033"/><circle cx="0.3075" cy="0.1676" r="0.0033"/><circle cx="0.3085" cy="0.1686" r="0.0033"/><circle cx="0.3096" cy="0.1686" r="0.0033"/><circle cx="0.3106" cy="0.1686" r="0.0033"/><circle cx="0.3116" cy="0.1697" r="0.0033"/><circle cx="0.3127" cy="0.1697" r="0.0033"/><circle cx="0.3137" cy="0.1697" r="0.0033"/><circle cx="0.3148" cy="0.1676" r="0.0033"/><circle cx="0.3158" cy="0.1676" r="0.0033"/><circle cx="0.3169" cy="0.1686" r="0.0033"/><circle cx="0.3179" cy="0.1697" r="0.0033"/><circle cx="0.3190" cy="0.1686" r="0.0033"/><circle cx="0.3200" cy="0.1686" r="0.0033"/><circle cx="0.3210" cy="0.1686" r="0.0033"/><circle cx="0.3221" cy="0.1707" r="0.0033"/><circle cx="0.3231" cy="0.1686" r="0.0033"/><circle cx="0.3242" cy="0.1686" r="0.0033"/><circle cx="0.3252" cy="0.1686" r="0.0033"/><circle cx="0.3263" cy="0.1676" r="0.0033"/><circle cx="0.3273" cy="0.1686" r="0.0033"/><circle cx="0.3284" cy="0.1697" r="0.0033"/><circle cx="0.3294" cy="0.1707" r="0.0033"/><circle cx="0.3305" cy="0.1686" r="0.0033"/><circle cx="0.3315" cy="0.1686" r="0.0033"/><circle cx="0.3325" cy="0.1686" r="0.0033"/><circle cx="0.3336" cy="0.1676" r="0.0033"/><circle cx="0.3346" cy="0.1686" r="0.0033"/><circle cx="0.3357" cy="0.1676" r="0.0033"/><circle cx="0.3367" cy="0.1686" r="0.0033"/><circle cx="0.3378" cy="0.1697" r="0.0033"/><circle cx="0.3388" cy="0.1686" r="0.0033"/><circle cx="0.3399" cy="0.1697" r="0.0033"/><circle cx="0.3409" cy="0.1686" r="0.0033"/><circle cx="0.3419" cy="0.1686" r="0.0033"/><circle cx="0.3430" cy="0.1686" r="0.0033"/><circle cx="0.3440" cy="0.1676" r="0.0033"/><circle cx="0.3451" cy="0.1676" r="0.0033"/><circle cx="0.3461" cy="0.1686" r="0.0033"/><circle cx="0.3472" cy="0.1686" r="0.0033"/><circle cx="0.3482" cy="0.1686" r="0.0033"/><circle cx="0.3493" cy="0.1686" r="0.0033"/><circle cx="0.3503" cy="0.1676" r="0.0033"/><circle cx="0.3513" cy="0.1686" r="0.0033"/><circle cx="0.3524" cy="0.1686" r="0.0033"/><circle cx="0.3534" cy="0.1686" r="0.0033"/><circle cx="0.3545" cy="0.1707" r="0.0033"/><circle cx="0.3555" cy="0.1697" r="0.0033"/><circle cx="0.3566" cy="0.1686" r="0.0033"/><circle cx="0.3576" cy="0.1697" r="0.0033"/><circle cx="0.3587" cy="0.1676" r="0.0033"/><circle cx="0.3597" cy="0.1686" r="0.0033"/><circle cx="0.3607" cy="0.1697" r="0.0033"/><circle cx="0.3618" cy="0.1697" r="0.0033"/><circle cx="0.3628" cy="0.1686" r="0.0033"/><circle cx="0.3639" cy="0.1686" r="0.0033"/><circle cx="0.3649" cy="0.1697" r="0.0033"/><circle cx="0.3660" cy="0.1686" r="0.0033"/><circle cx="0.3670" cy="0.1665" r="0.0033"/><circle cx="0.3681" cy="0.1676" r="0.0033"/><circle cx="0.3691" cy="0.1686" r="0.0033"/><circle cx="0.3701" cy="0.1697" r="0.0033"/><circle cx="0.3712" cy="0.1686" r="0.0033"/><circle cx="0.3722" cy="0.1686" r="0.0033"/><circle cx="0.3733" cy="0.1697" r="0.0033"/><circle cx="0.3743" cy="0.1686" r="0.0033"/><circle cx="0.3754" cy="0.1697" r="0.0033"/><circle cx="0.3764" cy="0.1665" r="0.0033"/><circle cx="0.3775" cy="0.1686" r="0.0033"/><circle cx="0.3785" cy="0.1686" r="0.0033"/><circle cx="0.3795" cy="0.1686" r="0.0033"/><circle cx="0.3806" cy="0.1697" r="0.0033"/><circle cx="0.3816" cy="0.1697" r="0.0033"/><circle cx="0.3827" cy="0.1697" r="0.0033"/><circle cx="0.3837" cy="0.1686" r="0.0033"/><circle cx="0.3848" cy="0.1686" r="0.0033"/><circle cx="0.3858" cy="0.1686" r="0.0033"/><circle cx="0.3869" cy="0.1686" r="0.0033"/><circle cx="0.3879" cy="0.1697" r="0.0033"/><circle cx="0.3889" cy="0.1686" r="0.0033"/><circle cx="0.3900" cy="0.1686" r="0.0033"/><circle cx="0.3910" cy="0.1697" r="0.0033"/><circle cx="0.3921" cy="0.1686" r="0.0033"/><circle cx="0.3931" cy="0.1676" r="0.0033"/><circle cx="0.3942" cy="0.1697" r="0.0033"/><circle cx="0.3952" cy="0.1676" r="0.0033"/><circle cx="0.3963" cy="0.1686" r="0.0033"/><circle cx="0.3973" cy="0.1686" r="0.0033"/><circle cx="0.3983" cy="-0.1711" r="0.0033"/><circle cx="0.3994" cy="0.1645" r="0.0033"/><circle cx="0.4004" cy="0.1676" r="0.0033"/><circle cx="0.4015" cy="0.1665" r="0.0033"/><circle cx="0.4025" cy="0.1697" r="0.0033"/><circle cx="0.4036" cy="0.1686" r="0.0033"/><circle cx="0.4046" cy="0.1686" r="0.0033"/><circle cx="0.4057" cy="0.1686" r="0.0033"/><circle cx="0.4067" cy="0.1686" r="0.0033"/><circle cx="0.4077" cy="0.1697" r="0.0033"/><circle cx="0.4088" cy="0.1686" r="0.0033"/><circle cx="0.4098" cy="0.1697" r="0.0033"/><circle cx="0.4109" cy="0.1686" r="0.0033"/><circle cx="0.4119" cy="0.1665" r="0.0033"/><circle cx="0.4130" cy="0.1686" r="0.0033"/><circle cx="0.4140" cy="0.1676" r="0.0033"/><circle cx="0.4151" cy="0.1676" r="0.0033"/><circle cx="0.4161" cy="0.1686" r="0.0033"/><circle cx="0.4172" cy="0.1697" r="0.0033"/><circle cx="0.4182" cy="0.1686" r="0.0033"/><circle cx="0.4192" cy="0.1686" r="0.0033"/><circle cx="0.4203" cy="0.1686" r="0.0033"/><circle cx="0.4213" cy="0.1686" r="0.0033"/><circle cx="0.4224" cy="0.1697" r="0.0033"/><circle cx="0.4234" cy="0.1686" r="0.0033"/><circle cx="0.4245" cy="0.1686" r="0.0033"/><circle cx="0.4255" cy="0.1686" r="0.0033"/><circle cx="0.4266" cy="0.1686" r="0.0033"/><circle cx="0.4276" cy="0.1676" r="0.0033"/><circle cx="0.4286" cy="0.1676" r="0.0033"/><circle cx="0.4297" cy="0.1686" r="0.0033"/><circle cx="0.4307" cy="0.1655" r="0.0033"/><circle cx="0.4318" cy="0.1676" r="0.0033"/><circle cx="0.4328" cy="0.1665" r="0.0033"/><circle cx="0.4339" cy="0.1686" r="0.0033"/><circle cx="0.4349" cy="0.1697" r="0.0033"/><circle cx="0.4360" cy="0.1686" r="0.0033"/><circle cx="0.4370" cy="0.1686" r="0.0033"/><circle cx="0.4380" cy="0.1697" r="0.0033"/><circle cx="0.4391" cy="0.1697" r="0.0033"/><circle cx="0.4401" cy="0.1697" r="0.0033"/><circle cx="0.4412" cy="0.1686" r="0.0033"/><circle cx="0.4422" cy="0.1697" r="0.0033"/><circle cx="0.4433" cy="0.1697" r="0.0033"/><circle cx="0.4443" cy="0.1686" r="0.0033"/><circle cx="0.4454" cy="0.1697" r="0.0033"/><circle cx="0.4464" cy="0.1686" r="0.0033"/><circle cx="0.4474" cy="0.1686" r="0.0033"/><circle cx="0.4485" cy="0.1697" r="0.0033"/><circle cx="0.4495" cy="0.1686" r="0.0033"/><circle cx="0.4506" cy="0.1686" r="0.0033"/><circle cx="0.4516" cy="0.1686" r="0.0033"/><circle cx="0.4527" cy="0.1686" r="0.0033"/><circle cx="0.4537" cy="0.1676" r="0.0033"/><circle cx="0.4548" cy="0.1676" r="0.0033"/><circle cx="0.4558" cy="0.1686" r="0.0033"/><circle cx="0.4568" cy="-0.0273" r="0.0033"/><circle cx="0.4579" cy="0.1655" r="0.0033"/><circle cx="0.4589" cy="0.1686" r="0.0033"/><circle cx="0.4600" cy="0.1676" r="0.0033"/><circle cx="0.4610" cy="0.1655" r="0.0033"/><circle cx="0.4621" cy="0.1686" r="0.0033"/><circle cx="0.4631" cy="0.1676" r="0.0033"/><circle cx="0.4642" cy="0.1676" r="0.0033"/><circle cx="0.4652" cy="0.1686" r="0.0033"/><circle cx="0.4662" cy="0.1686" r="0.0033"/></g></g><g class="averages"><g stroke-width="0.0020" stroke="rgb(66%, 7%, 55%)" stroke-opacity="1.0" fill="rgb(66%, 7%, 55%)" fill-opacity="1.0"><rect width="0.0330" height="0.0247" x="-0.5938" y="0.1436"/></g><g stroke-width="0.0020" stroke="rgb(96%, 60%, 92%)" stroke-opacity="1.0" fill="rgb(96%, 60%, 92%)" fill-opacity="1.0"><rect width="0.0330" height="0.0247" x="-0.5938" y="0.1558" rx="0.0100" ry="0.0100"/></g><g stroke-width="0.0020" stroke="rgb(100%, 71%, 35%)" stroke-opacity="1.0" fill="rgb(100%, 71%, 35%)" fill-opacity="1.0"><ellipse cx="-0.5772912770053842" cy="0.1696553638965042" rx="1.6497897636011324e-2" ry="1.2373423227008493e-2"/></g></g><g class="xrange"></g><g class="datapadding"></g></g><g class="hud"><g class="frame"><g stroke-width="0" stroke="rgb(0%, 0%, 0%)" stroke-opacity="0" fill="rgb(100%, 100%, 100%)" fill-opacity="0.02"><rect width="1.0665" height="0.6253" x="-0.5957" y="-0.3650"/></g></g><g class="axis"><g class="axisbar"><g stroke-width="0" stroke="rgb(0%, 0%, 0%)" stroke-opacity="0" fill="rgb(5%, 5%, 5%)" fill-opacity="0.4"><rect width="1.0474" height="0.0025" x="-0.5787" y="0.2666"/></g></g><g class="ticks"><g class="ticklines"><g stroke-width="0.0033" stroke="rgb(5%, 5%, 5%)" stroke-opacity="0.05" fill="none"><polyline points="-0.5773,0.2603 -0.5773,-0.3650"/><polyline points="-0.3684,0.2603 -0.3684,-0.3650"/><polyline points="-0.1595,0.2603 -0.1595,-0.3650"/><polyline points="0.0495,0.2603 0.0495,-0.3650"/><polyline points="0.2584,0.2603 0.2584,-0.3650"/><polyline points="0.4673,0.2603 0.4673,-0.3650"/></g></g><g class="tickglyph"><g stroke-width="0.0026" stroke="rgb(5%, 5%, 5%)" stroke-opacity="0.4" fill="rgb(5%, 5%, 5%)" fill-opacity="0.4"><polyline points="-0.5773,0.2871
-0.5773,0.2673"/><polyline points="-0.3684,0.2871
-0.3684,0.2673"/><polyline points="-0.1595,0.2871
-0.1595,0.2673"/><polyline points="0.0495,0.2871
0.0495,0.2673"/><polyline points="0.2584,0.2871
0.2584,0.2673"/><polyline points="0.4673,0.2871
0.4673,0.2673"/></g></g><g class="ticktext"><g stroke-width="0.0" stroke="none" fill="rgb(5%, 5%, 5%)" fill-opacity="1.0" font-size="0.0264" text-anchor="middle"><text x="-0.5773" y="0.3210">    0</text><text x="-0.3684" y="0.3210">  200</text><text x="-0.1595" y="0.3210">  400</text><text x="0.0495" y="0.3210">  600</text><text x="0.2584" y="0.3210">  800</text><text x="0.4673" y="0.3210">1,000</text></g></g></g></g><g class="axis"><g class="axisbar"><g stroke-width="0" stroke="rgb(0%, 0%, 0%)" stroke-opacity="0" fill="rgb(5%, 5%, 5%)" fill-opacity="0.4"><rect width="0.0028" height="0.6278" x="-0.5870" y="-0.3663"/></g></g><g class="ticks"><g class="ticklines"><g stroke-width="0.0033" stroke="rgb(5%, 5%, 5%)" stroke-opacity="0.05" fill="none"><polyline points="-0.5773,0.2603 0.4673,0.2603"/><polyline points="-0.5773,0.1353 0.4673,0.1353"/><polyline points="-0.5773,0.0102 0.4673,0.0102"/><polyline points="-0.5773,-0.1149 0.4673,-0.1149"/><polyline points="-0.5773,-0.2399 0.4673,-0.2399"/><polyline points="-0.5773,-0.3650 0.4673,-0.3650"/></g></g><g class="tickglyph"><g stroke-width="0.0026" stroke="rgb(5%, 5%, 5%)" stroke-opacity="0.4" fill="rgb(5%, 5%, 5%)" fill-opacity="0.4"><polyline points="-0.6060,0.2603
-0.5862,0.2603"/><polyline points="-0.6060,0.1353
-0.5862,0.1353"/><polyline points="-0.6060,0.0102
-0.5862,0.0102"/><polyline points="-0.6060,-0.1149
-0.5862,-0.1149"/><polyline points="-0.6060,-0.2399
-0.5862,-0.2399"/><polyline points="-0.6060,-0.3650
-0.5862,-0.3650"/></g></g><g class="ticktext"><g stroke-width="0.0" stroke="none" fill="rgb(5%, 5%, 5%)" fill-opacity="1.0" font-size="0.0264" text-anchor="end"><text x="-0.6219" y="0.2672"> 5,000</text><text x="-0.6219" y="0.1421">10,000</text><text x="-0.6219" y="0.0171">15,000</text><text x="-0.6219" y="-0.1080">20,000</text><text x="-0.6219" y="-0.2331">25,000</text><text x="-0.6219" y="-0.3581">30,000</text></g></g></g></g><g class="frame"><g stroke-width="0" stroke="rgb(0%, 0%, 0%)" stroke-opacity="0" fill="rgb(0%, 0%, 0%)" fill-opacity="0"><rect width="1.2869" height="0.7567" x="-0.75" y="-0.4031"/></g></g></g></g><g class="hud"><g class="title"><g stroke-width="0.0" stroke="none" fill="rgb(5%, 5%, 5%)" fill-opacity="1.0" font-size="0.0800" text-anchor="middle"><text x="0" y="-0.4516">sum: time</text></g></g><g class="legend"><g class="padding"></g><g class="padding"></g><g class="frame"><g stroke-width="0.0010" stroke="rgb(5%, 5%, 5%)" stroke-opacity="1.0" fill="rgb(5%, 5%, 5%)" fill-opacity="0"><rect width="1.0912" height="0.0648" x="-0.5456" y="0.4322"/></g></g><g class="legendContent"><g stroke-width="0.0006" stroke="rgb(66%, 7%, 55%)" stroke-opacity="1.0" fill="rgb(66%, 7%, 55%)" fill-opacity="1.0"><rect width="0.0600" height="0.0450" x="0.4653" y="0.4421"/></g><g stroke-width="0.0" stroke="none" fill="rgb(5%, 5%, 5%)" fill-opacity="1.0" font-size="0.0320" text-anchor="start"><text x="0.1763" y="0.4706">average: 9,170</text></g><g stroke-width="0.0006" stroke="rgb(96%, 60%, 92%)" stroke-opacity="1.0" fill="rgb(96%, 60%, 92%)" fill-opacity="1.0"><rect width="0.0600" height="0.0450" x="0.0760" y="0.4421" rx="0.0100" ry="0.0100"/></g><g stroke-width="0.0" stroke="none" fill="rgb(5%, 5%, 5%)" fill-opacity="1.0" font-size="0.0320" text-anchor="start"><text x="-0.1939" y="0.4706">median: 8,680</text></g><g stroke-width="0.0006" stroke="rgb(100%, 71%, 35%)" stroke-opacity="1.0" fill="rgb(100%, 71%, 35%)" fill-opacity="1.0"><ellipse cx="-0.26414525751500667" cy="0.464588377723971" rx="2.999378397218091e-2" ry="2.2495337979135683e-2"/></g><g stroke-width="0.0" stroke="none" fill="rgb(5%, 5%, 5%)" fill-opacity="1.0" font-size="0.0320" text-anchor="start"><text x="-0.5256" y="0.4706">best: 8,630</text></g></g></g></g></svg>